<svg width="16" height="16" viewBox="0 0 16 16" fill="none" xmlns="http://www.w3.org/2000/svg">
<path d="M15.4541 2.49083C15.991 1.95386 15.991 1.08325 15.4541 0.546283C14.9171 0.00931193 14.0465 0.00931193 13.5095 0.546283L7.99998 6.05582L2.49045 0.546284C1.95348 0.00931315 1.08287 0.00931256 0.545903 0.546283C0.00893229 1.08325 0.00893268 1.95386 0.545903 2.49083L6.05543 8.00036L0.545886 13.5099C0.00891556 14.0469 0.00891501 14.9175 0.545886 15.4545C1.08286 15.9914 1.95346 15.9914 2.49043 15.4545L7.99998 9.9449L13.5095 15.4545C14.0465 15.9914 14.9171 15.9914 15.4541 15.4545C15.991 14.9175 15.991 14.0469 15.4541 13.5099L9.94452 8.00036L15.4541 2.49083Z" fill="black"/>
</svg>
