<svg width="255" height="53" viewBox="0 0 255 53" fill="none" xmlns="http://www.w3.org/2000/svg">
<path d="M142.157 41.0891C141.364 41.0891 140.175 41.7599 139.779 41.894C138.854 42.0282 137.664 41.6257 137.003 36.3936C136.607 33.3081 137.003 30.0883 137.136 26.8686C137.136 26.0637 128.943 27.2711 128.943 29.82C128.811 33.7105 128.282 37.7352 129.207 41.4915C129.207 41.6257 129.207 41.6257 129.339 41.7599C125.375 42.8331 121.41 40.6866 119.957 36.3936C119.56 35.1862 119.428 33.8447 119.428 32.5031C119.428 32.1007 119.56 29.5517 119.825 28.7468C125.375 27.6735 130.661 25.7954 135.55 23.1122C136.078 22.8439 137.4 22.1732 137.268 21.3682C135.814 9.96501 124.582 12.1115 116.785 15.7337C114.803 16.6728 114.275 17.2094 114.407 18.551C114.539 19.7584 115.86 20.0267 116.918 19.7584C118.239 19.3559 118.9 17.8802 120.485 17.2094C125.639 14.7946 128.018 18.8193 128.943 23.3806C125.771 24.7221 116.918 26.332 113.878 26.8686C112.557 27.1369 112.292 28.076 112.028 28.8809C111.632 30.7591 111.367 32.6373 111.367 34.5155C111.235 36.7961 110.971 41.2232 108.989 41.4915C107.007 41.894 107.403 33.0397 107.403 31.1616C107.535 26.8686 107.932 22.8439 107.007 18.551C105.553 11.8432 98.0209 12.7823 92.6029 15.1971C89.6957 11.8432 84.0135 12.3798 78.8599 13.8555C77.5384 14.258 74.2348 15.0629 73.9705 16.8069C72.9134 27.1369 72.1205 38.2718 73.8384 48.6018C67.4955 46.187 62.0775 39.3451 60.6239 32.5031C66.174 31.6982 71.0634 29.5517 70.4026 22.7098C69.2133 10.9041 56.9239 9.83085 45.8237 14.7946C44.6344 15.3312 44.238 16.1362 43.8416 17.8802C42.2558 23.783 41.1987 34.9179 42.7844 44.1747C42.9166 44.8454 44.6344 45.7845 47.2773 45.7845C49.9202 45.7845 51.7703 45.1137 51.6381 44.1747C48.8631 33.1739 50.4488 20.6974 51.9024 16.002C63.399 14.9288 62.6061 27.1369 62.474 28.8809C62.2097 30.625 59.9632 30.8933 59.3025 29.0151C58.6418 27.2711 51.9024 28.6126 52.0345 32.2348C52.431 45.2479 64.8526 54.6388 77.142 52.7606C78.067 52.6265 83.3528 51.2849 83.0885 49.675C80.1813 39.2109 80.4456 27.9418 81.5028 17.2094C89.8279 13.4531 85.9957 38.1377 85.8636 44.443C85.8636 44.8454 87.0529 45.5162 90.0922 45.5162C92.8672 45.5162 94.0565 45.2479 94.0565 44.0405C94.1887 38.6743 94.3208 32.2348 94.3208 26.332C94.3208 24.588 94.4529 19.8925 93.3958 17.8802C100.003 14.6604 99.3423 27.1369 99.2102 29.5517C99.2102 33.8447 98.0208 40.8208 101.457 44.3088C104.099 46.9919 110.178 45.5162 113.482 42.4306C114.142 43.2356 115.067 44.0405 116.125 44.5771C120.089 46.8578 125.639 45.7845 130.396 43.9063C132.378 45.5162 135.682 45.3821 138.325 44.7113C139.646 44.443 142.025 43.638 142.818 42.1623C143.214 41.6257 142.95 41.0891 142.157 41.0891Z" fill="#5C6D08"/>
<path d="M39.9937 39.0289C39.8608 37.8407 38.1336 37.8407 37.2035 37.9727C35.3434 38.2368 34.6791 40.349 32.2875 41.4052C30.826 42.0653 28.9659 42.1973 27.7701 41.8012C24.1828 40.6131 23.3856 37.7087 22.8541 34.5403C22.1898 29.9197 22.4555 23.8469 24.0499 19.3583C24.4485 18.1701 17.8053 16.5859 16.2109 20.4144C13.4207 27.4113 12.3578 38.5008 18.6024 43.7815C23.6513 48.006 31.4903 45.4977 37.0707 42.0653C38.1336 41.4052 40.1265 39.953 39.9937 39.0289Z" fill="#5C6D08"/>
<path d="M7.1816 12.3564C10.3178 11.4133 10.7098 10.8743 10.7098 9.93116C10.7098 7.64064 10.9712 5.35013 12.1473 3.59856C13.7154 3.46382 15.9368 4.00277 17.7663 4.40698C19.8571 4.81118 21.2945 4.27224 22.6013 3.59856C22.7319 3.59856 25.9988 1.44278 24.6921 1.17331C15.2835 -1.79089 3 0.499629 3 12.2217C3 13.1648 4.17608 13.2996 7.1816 12.3564Z" fill="#5C6D08"/>
<path d="M11.1002 16.7837C18.6586 15.0456 27.7809 13.8423 30.9085 21.8643C31.5601 23.4687 31.8207 25.2069 31.8207 26.945C31.8207 28.4157 31.4297 29.619 29.2143 29.2179C28.3021 29.0842 25.9564 27.8809 24.6532 28.6831C23.3501 29.4853 23.6107 32.6941 24.9139 32.5604C29.3447 32.293 39.2488 30.956 39.9004 24.9395C40.2913 21.0621 39.6398 17.5859 35.9909 14.6445C29.475 9.29652 11.7518 13.1738 1.32639 16.5163C0.153534 16.9174 -0.367736 18.2544 0.283852 18.9229C1.06576 19.5914 3.02052 18.7892 2.8902 18.9229C1.97798 25.4743 1.97798 39.3791 2.62957 46.1978C2.62957 46.7326 3.54179 47 6.14814 47C8.75449 47 10.7093 46.3315 10.5789 45.2619C10.3183 36.7051 9.5364 25.608 11.1002 16.7837Z" fill="#5C6D08"/>
<mask id="path-5-outside-1_3_262" maskUnits="userSpaceOnUse" x="151" y="13" width="104" height="33" fill="black">
<rect fill="white" x="151" y="13" width="104" height="33"/>
<path d="M157.682 23.5591C156.872 23.5591 156.14 23.3744 155.484 23.0052C154.829 22.624 154.305 22.082 153.912 21.3793C153.531 20.6646 153.34 19.795 153.34 18.7706C153.34 17.7462 153.531 16.8826 153.912 16.1798C154.293 15.4651 154.811 14.9232 155.467 14.5539C156.122 14.1846 156.86 14 157.682 14C158.576 14 159.374 14.2025 160.077 14.6075C160.792 15.0006 161.351 15.5604 161.756 16.287C162.162 17.0017 162.364 17.8296 162.364 18.7706C162.364 19.7235 162.162 20.5573 161.756 21.272C161.351 21.9867 160.792 22.5466 160.077 22.9516C159.374 23.3566 158.576 23.5591 157.682 23.5591ZM152.84 26.936V14.0893H154.055V16.9124L153.93 18.7885L154.109 20.6824V26.936H152.84ZM157.593 22.4334C158.26 22.4334 158.856 22.2845 159.38 21.9867C159.904 21.677 160.321 21.2482 160.631 20.7003C160.94 20.1404 161.095 19.4972 161.095 18.7706C161.095 18.044 160.94 17.4067 160.631 16.8588C160.321 16.3109 159.904 15.882 159.38 15.5723C158.856 15.2626 158.26 15.1078 157.593 15.1078C156.926 15.1078 156.324 15.2626 155.788 15.5723C155.264 15.882 154.847 16.3109 154.537 16.8588C154.24 17.4067 154.091 18.044 154.091 18.7706C154.091 19.4972 154.24 20.1404 154.537 20.7003C154.847 21.2482 155.264 21.677 155.788 21.9867C156.324 22.2845 156.926 22.4334 157.593 22.4334Z"/>
<path d="M169.11 23.5591C168.134 23.5591 167.276 23.3566 166.537 22.9516C165.799 22.5347 165.221 21.9689 164.804 21.2542C164.387 20.5276 164.179 19.6997 164.179 18.7706C164.179 17.8415 164.375 17.0196 164.768 16.3049C165.173 15.5902 165.721 15.0304 166.412 14.6254C167.115 14.2085 167.901 14 168.771 14C169.652 14 170.433 14.2025 171.112 14.6075C171.803 15.0006 172.345 15.5604 172.738 16.287C173.131 17.0017 173.328 17.8296 173.328 18.7706C173.328 18.8302 173.322 18.8957 173.31 18.9671C173.31 19.0267 173.31 19.0922 173.31 19.1637H165.144V18.2167H172.631L172.13 18.5919C172.13 17.913 171.981 17.3114 171.684 16.7873C171.398 16.2513 171.005 15.8344 170.504 15.5366C170.004 15.2388 169.426 15.0899 168.771 15.0899C168.128 15.0899 167.55 15.2388 167.038 15.5366C166.525 15.8344 166.126 16.2513 165.84 16.7873C165.555 17.3233 165.412 17.9368 165.412 18.6277V18.8242C165.412 19.5389 165.566 20.1702 165.876 20.7182C166.198 21.2542 166.639 21.677 167.198 21.9867C167.77 22.2845 168.42 22.4334 169.146 22.4334C169.718 22.4334 170.248 22.3322 170.737 22.1297C171.237 21.9272 171.666 21.6175 172.023 21.2006L172.738 22.0225C172.321 22.5228 171.797 22.9039 171.165 23.166C170.546 23.428 169.861 23.5591 169.11 23.5591Z"/>
<path d="M183.015 23.4697L179.156 18.8242L180.21 18.1988L184.516 23.4697H183.015ZM176.136 23.4697V14.0893H177.405V23.4697H176.136ZM177.011 19.2888V18.1988H180.031V19.2888H177.011ZM180.317 18.9135L179.138 18.7349L182.873 14.0893H184.248L180.317 18.9135Z"/>
<path d="M184.803 23.4519L184.893 22.362C184.976 22.3739 185.054 22.3917 185.125 22.4156C185.208 22.4275 185.28 22.4334 185.339 22.4334C185.721 22.4334 186.024 22.2905 186.251 22.0046C186.489 21.7187 186.668 21.3376 186.787 20.8611C186.906 20.3846 186.989 19.8486 187.037 19.253C187.085 18.6455 187.126 18.038 187.162 17.4305L187.323 14.0893H194.202V23.4697H192.934V14.8219L193.255 15.1971H188.145L188.449 14.804L188.306 17.5199C188.27 18.3299 188.204 19.1041 188.109 19.8427C188.026 20.5812 187.889 21.2304 187.698 21.7902C187.519 22.35 187.269 22.7908 186.948 23.1124C186.626 23.4221 186.215 23.5769 185.715 23.5769C185.572 23.5769 185.423 23.565 185.268 23.5412C185.125 23.5174 184.97 23.4876 184.803 23.4519Z"/>
<path d="M203.634 23.4697V21.3971L203.581 21.0576V17.5914C203.581 16.7933 203.354 16.1798 202.902 15.751C202.461 15.3222 201.8 15.1078 200.918 15.1078C200.311 15.1078 199.733 15.209 199.185 15.4115C198.637 15.614 198.172 15.882 197.791 16.2156L197.219 15.2686C197.696 14.8636 198.268 14.5539 198.935 14.3395C199.602 14.1132 200.305 14 201.043 14C202.259 14 203.194 14.3037 203.849 14.9112C204.516 15.5068 204.85 16.4181 204.85 17.645V23.4697H203.634ZM200.4 23.5591C199.697 23.5591 199.084 23.4459 198.56 23.2196C198.047 22.9814 197.654 22.6597 197.38 22.2548C197.106 21.8378 196.969 21.3614 196.969 20.8254C196.969 20.337 197.082 19.8963 197.309 19.5032C197.547 19.0982 197.928 18.7766 198.452 18.5383C198.988 18.2882 199.703 18.1631 200.597 18.1631H203.831V19.1101H200.632C199.727 19.1101 199.096 19.2709 198.738 19.5925C198.393 19.9141 198.22 20.3132 198.22 20.7896C198.22 21.3256 198.429 21.7545 198.846 22.0761C199.262 22.3977 199.846 22.5585 200.597 22.5585C201.311 22.5585 201.925 22.3977 202.437 22.0761C202.961 21.7426 203.343 21.2661 203.581 20.6467L203.867 21.5222C203.628 22.1416 203.212 22.6359 202.616 23.0052C202.032 23.3744 201.294 23.5591 200.4 23.5591Z"/>
<path d="M208.227 23.4697V14.0893H209.513L213.766 21.2899H213.23L217.555 14.0893H218.734V23.4697H217.572V15.5366L217.805 15.6438L213.766 22.3262H213.194L209.12 15.5723L209.388 15.5187V23.4697H208.227Z"/>
<path d="M222.344 23.4697V14.0893H223.613V18.2346H229.528V14.0893H230.796V23.4697H229.528V19.3245H223.613V23.4697H222.344Z"/>
<path d="M238.262 23.5591C237.357 23.5591 236.541 23.3566 235.814 22.9516C235.099 22.5347 234.533 21.9689 234.116 21.2542C233.699 20.5276 233.491 19.6997 233.491 18.7706C233.491 17.8296 233.699 17.0017 234.116 16.287C234.533 15.5723 235.099 15.0125 235.814 14.6075C236.529 14.2025 237.345 14 238.262 14C239.191 14 240.013 14.2025 240.728 14.6075C241.455 15.0125 242.02 15.5723 242.425 16.287C242.842 17.0017 243.051 17.8296 243.051 18.7706C243.051 19.6997 242.842 20.5276 242.425 21.2542C242.02 21.9689 241.455 22.5347 240.728 22.9516C240.001 23.3566 239.179 23.5591 238.262 23.5591ZM238.262 22.4334C238.941 22.4334 239.543 22.2845 240.067 21.9867C240.591 21.677 241.002 21.2482 241.3 20.7003C241.609 20.1404 241.764 19.4972 241.764 18.7706C241.764 18.0321 241.609 17.3889 241.3 16.8409C241.002 16.293 240.591 15.8701 240.067 15.5723C239.543 15.2626 238.947 15.1078 238.28 15.1078C237.613 15.1078 237.017 15.2626 236.493 15.5723C235.969 15.8701 235.552 16.293 235.242 16.8409C234.932 17.3889 234.778 18.0321 234.778 18.7706C234.778 19.4972 234.932 20.1404 235.242 20.7003C235.552 21.2482 235.969 21.677 236.493 21.9867C237.017 22.2845 237.607 22.4334 238.262 22.4334Z"/>
<path d="M249.783 23.5591C248.806 23.5591 247.948 23.3566 247.21 22.9516C246.471 22.5347 245.893 21.9689 245.476 21.2542C245.06 20.5276 244.851 19.6997 244.851 18.7706C244.851 17.8415 245.048 17.0196 245.441 16.3049C245.846 15.5902 246.394 15.0304 247.085 14.6254C247.788 14.2085 248.574 14 249.443 14C250.325 14 251.105 14.2025 251.784 14.6075C252.475 15.0006 253.017 15.5604 253.41 16.287C253.803 17.0017 254 17.8296 254 18.7706C254 18.8302 253.994 18.8957 253.982 18.9671C253.982 19.0267 253.982 19.0922 253.982 19.1637H245.816V18.2167H253.303L252.803 18.5919C252.803 17.913 252.654 17.3114 252.356 16.7873C252.07 16.2513 251.677 15.8344 251.177 15.5366C250.676 15.2388 250.099 15.0899 249.443 15.0899C248.8 15.0899 248.222 15.2388 247.71 15.5366C247.198 15.8344 246.799 16.2513 246.513 16.7873C246.227 17.3233 246.084 17.9368 246.084 18.6277V18.8242C246.084 19.5389 246.239 20.1702 246.549 20.7182C246.87 21.2542 247.311 21.677 247.871 21.9867C248.443 22.2845 249.092 22.4334 249.819 22.4334C250.39 22.4334 250.921 22.3322 251.409 22.1297C251.909 21.9272 252.338 21.6175 252.696 21.2006L253.41 22.0225C252.993 22.5228 252.469 22.9039 251.838 23.166C251.218 23.428 250.533 23.5591 249.783 23.5591Z"/>
<path d="M158.665 44.9107V42.838L158.612 42.4986V39.0323C158.612 38.2342 158.385 37.6207 157.933 37.1919C157.492 36.7631 156.831 36.5487 155.949 36.5487C155.342 36.5487 154.764 36.6499 154.216 36.8524C153.668 37.0549 153.203 37.323 152.822 37.6565L152.25 36.7095C152.727 36.3045 153.298 35.9948 153.966 35.7804C154.633 35.5541 155.336 35.4409 156.074 35.4409C157.289 35.4409 158.224 35.7447 158.88 36.3522C159.547 36.9477 159.88 37.859 159.88 39.0859V44.9107H158.665ZM155.431 45C154.728 45 154.115 44.8868 153.59 44.6605C153.078 44.4223 152.685 44.1007 152.411 43.6957C152.137 43.2788 152 42.8023 152 42.2663C152 41.7779 152.113 41.3372 152.34 40.9441C152.578 40.5391 152.959 40.2175 153.483 39.9792C154.019 39.7291 154.734 39.604 155.627 39.604H158.862V40.551H155.663C154.758 40.551 154.126 40.7118 153.769 41.0334C153.424 41.355 153.251 41.7541 153.251 42.2305C153.251 42.7666 153.459 43.1954 153.876 43.517C154.293 43.8386 154.877 43.9994 155.627 43.9994C156.342 43.9994 156.956 43.8386 157.468 43.517C157.992 43.1835 158.373 42.707 158.612 42.0876L158.897 42.9631C158.659 43.5825 158.242 44.0768 157.647 44.4461C157.063 44.8154 156.324 45 155.431 45Z"/>
<path d="M163.258 44.9107V35.5303H169.905V36.638H164.205L164.526 36.3164V44.9107H163.258Z"/>
<path d="M175.323 45C174.346 45 173.488 44.7975 172.75 44.3925C172.011 43.9756 171.433 43.4098 171.016 42.6951C170.599 41.9685 170.391 41.1406 170.391 40.2115C170.391 39.2824 170.587 38.4605 170.981 37.7458C171.386 37.0311 171.934 36.4713 172.625 36.0663C173.327 35.6494 174.114 35.4409 174.983 35.4409C175.865 35.4409 176.645 35.6434 177.324 36.0484C178.015 36.4415 178.557 37.0013 178.95 37.728C179.343 38.4426 179.54 39.2705 179.54 40.2115C179.54 40.2711 179.534 40.3366 179.522 40.4081C179.522 40.4676 179.522 40.5331 179.522 40.6046H171.356V39.6576H178.843L178.343 40.0329C178.343 39.3539 178.194 38.7524 177.896 38.2282C177.61 37.6922 177.217 37.2753 176.717 36.9775C176.216 36.6797 175.638 36.5308 174.983 36.5308C174.34 36.5308 173.762 36.6797 173.25 36.9775C172.738 37.2753 172.339 37.6922 172.053 38.2282C171.767 38.7643 171.624 39.3777 171.624 40.0686V40.2651C171.624 40.9798 171.779 41.6111 172.088 42.1591C172.41 42.6951 172.851 43.118 173.411 43.4277C173.983 43.7255 174.632 43.8743 175.358 43.8743C175.93 43.8743 176.46 43.7731 176.949 43.5706C177.449 43.3681 177.878 43.0584 178.235 42.6415L178.95 43.4634C178.533 43.9637 178.009 44.3449 177.378 44.6069C176.758 44.869 176.073 45 175.323 45Z"/>
<path d="M182.348 44.9107V35.5303H183.617V39.6755H189.532V35.5303H190.8V44.9107H189.532V40.7654H183.617V44.9107H182.348Z"/>
<path d="M196.193 44.9107V36.2986L196.515 36.638H192.637V35.5303H201.018V36.638H197.14L197.462 36.2986V44.9107H196.193Z"/>
<path d="M206.347 45C205.418 45 204.584 44.7975 203.845 44.3925C203.119 43.9756 202.547 43.4098 202.13 42.6951C201.713 41.9685 201.505 41.1406 201.505 40.2115C201.505 39.2705 201.713 38.4426 202.13 37.728C202.547 37.0133 203.119 36.4534 203.845 36.0484C204.584 35.6434 205.418 35.4409 206.347 35.4409C207.145 35.4409 207.866 35.5958 208.509 35.9055C209.153 36.2152 209.659 36.6797 210.028 37.2991L209.081 37.9424C208.759 37.4659 208.36 37.1145 207.884 36.8882C207.407 36.6619 206.889 36.5487 206.329 36.5487C205.662 36.5487 205.061 36.7036 204.525 37.0133C203.988 37.311 203.566 37.7339 203.256 38.2818C202.946 38.8298 202.791 39.473 202.791 40.2115C202.791 40.95 202.946 41.5933 203.256 42.1412C203.566 42.6891 203.988 43.118 204.525 43.4277C205.061 43.7255 205.662 43.8743 206.329 43.8743C206.889 43.8743 207.407 43.7612 207.884 43.5349C208.36 43.3085 208.759 42.9631 209.081 42.4986L210.028 43.1418C209.659 43.7493 209.153 44.2138 208.509 44.5354C207.866 44.8451 207.145 45 206.347 45Z"/>
<path d="M214.097 44.9107V36.2986L214.419 36.638H210.541V35.5303H218.922V36.638H215.044L215.366 36.2986V44.9107H214.097Z"/>
<path d="M220.756 44.9107V35.5303H224.902C225.962 35.5303 226.796 35.7328 227.403 36.1378C228.023 36.5427 228.333 37.1383 228.333 37.9245C228.333 38.6868 228.041 39.2765 227.457 39.6934C226.873 40.0984 226.105 40.3009 225.152 40.3009L225.402 39.9256C226.522 39.9256 227.344 40.1341 227.868 40.551C228.392 40.9679 228.654 41.5695 228.654 42.3556C228.654 43.1656 228.356 43.7969 227.761 44.2496C227.177 44.6903 226.266 44.9107 225.027 44.9107H220.756ZM221.989 43.9101H224.973C225.771 43.9101 226.373 43.785 226.778 43.5349C227.195 43.2728 227.403 42.8559 227.403 42.2841C227.403 41.7124 227.219 41.2955 226.85 41.0334C226.48 40.7714 225.897 40.6403 225.098 40.6403H221.989V43.9101ZM221.989 39.6934H224.812C225.539 39.6934 226.093 39.5564 226.474 39.2824C226.867 39.0085 227.064 38.6094 227.064 38.0853C227.064 37.5612 226.867 37.1681 226.474 36.9061C226.093 36.644 225.539 36.513 224.812 36.513H221.989V39.6934Z"/>
<path d="M235.487 45C234.582 45 233.766 44.7975 233.039 44.3925C232.325 43.9756 231.759 43.4098 231.342 42.6951C230.925 41.9685 230.716 41.1406 230.716 40.2115C230.716 39.2705 230.925 38.4426 231.342 37.728C231.759 37.0133 232.325 36.4534 233.039 36.0484C233.754 35.6434 234.57 35.4409 235.487 35.4409C236.417 35.4409 237.239 35.6434 237.953 36.0484C238.68 36.4534 239.246 37.0133 239.651 37.728C240.068 38.4426 240.276 39.2705 240.276 40.2115C240.276 41.1406 240.068 41.9685 239.651 42.6951C239.246 43.4098 238.68 43.9756 237.953 44.3925C237.227 44.7975 236.405 45 235.487 45ZM235.487 43.8743C236.166 43.8743 236.768 43.7255 237.292 43.4277C237.816 43.118 238.227 42.6891 238.525 42.1412C238.835 41.5814 238.99 40.9381 238.99 40.2115C238.99 39.473 238.835 38.8298 238.525 38.2818C238.227 37.7339 237.816 37.311 237.292 37.0133C236.768 36.7036 236.172 36.5487 235.505 36.5487C234.838 36.5487 234.243 36.7036 233.718 37.0133C233.194 37.311 232.777 37.7339 232.468 38.2818C232.158 38.8298 232.003 39.473 232.003 40.2115C232.003 40.9381 232.158 41.5814 232.468 42.1412C232.777 42.6891 233.194 43.118 233.718 43.4277C234.243 43.7255 234.832 43.8743 235.487 43.8743Z"/>
</mask>
<path d="M157.682 23.5591C156.872 23.5591 156.14 23.3744 155.484 23.0052C154.829 22.624 154.305 22.082 153.912 21.3793C153.531 20.6646 153.34 19.795 153.34 18.7706C153.34 17.7462 153.531 16.8826 153.912 16.1798C154.293 15.4651 154.811 14.9232 155.467 14.5539C156.122 14.1846 156.86 14 157.682 14C158.576 14 159.374 14.2025 160.077 14.6075C160.792 15.0006 161.351 15.5604 161.756 16.287C162.162 17.0017 162.364 17.8296 162.364 18.7706C162.364 19.7235 162.162 20.5573 161.756 21.272C161.351 21.9867 160.792 22.5466 160.077 22.9516C159.374 23.3566 158.576 23.5591 157.682 23.5591ZM152.84 26.936V14.0893H154.055V16.9124L153.93 18.7885L154.109 20.6824V26.936H152.84ZM157.593 22.4334C158.26 22.4334 158.856 22.2845 159.38 21.9867C159.904 21.677 160.321 21.2482 160.631 20.7003C160.94 20.1404 161.095 19.4972 161.095 18.7706C161.095 18.044 160.94 17.4067 160.631 16.8588C160.321 16.3109 159.904 15.882 159.38 15.5723C158.856 15.2626 158.26 15.1078 157.593 15.1078C156.926 15.1078 156.324 15.2626 155.788 15.5723C155.264 15.882 154.847 16.3109 154.537 16.8588C154.24 17.4067 154.091 18.044 154.091 18.7706C154.091 19.4972 154.24 20.1404 154.537 20.7003C154.847 21.2482 155.264 21.677 155.788 21.9867C156.324 22.2845 156.926 22.4334 157.593 22.4334Z" fill="#5C6D08"/>
<path d="M169.11 23.5591C168.134 23.5591 167.276 23.3566 166.537 22.9516C165.799 22.5347 165.221 21.9689 164.804 21.2542C164.387 20.5276 164.179 19.6997 164.179 18.7706C164.179 17.8415 164.375 17.0196 164.768 16.3049C165.173 15.5902 165.721 15.0304 166.412 14.6254C167.115 14.2085 167.901 14 168.771 14C169.652 14 170.433 14.2025 171.112 14.6075C171.803 15.0006 172.345 15.5604 172.738 16.287C173.131 17.0017 173.328 17.8296 173.328 18.7706C173.328 18.8302 173.322 18.8957 173.31 18.9671C173.31 19.0267 173.31 19.0922 173.31 19.1637H165.144V18.2167H172.631L172.13 18.5919C172.13 17.913 171.981 17.3114 171.684 16.7873C171.398 16.2513 171.005 15.8344 170.504 15.5366C170.004 15.2388 169.426 15.0899 168.771 15.0899C168.128 15.0899 167.55 15.2388 167.038 15.5366C166.525 15.8344 166.126 16.2513 165.84 16.7873C165.555 17.3233 165.412 17.9368 165.412 18.6277V18.8242C165.412 19.5389 165.566 20.1702 165.876 20.7182C166.198 21.2542 166.639 21.677 167.198 21.9867C167.77 22.2845 168.42 22.4334 169.146 22.4334C169.718 22.4334 170.248 22.3322 170.737 22.1297C171.237 21.9272 171.666 21.6175 172.023 21.2006L172.738 22.0225C172.321 22.5228 171.797 22.9039 171.165 23.166C170.546 23.428 169.861 23.5591 169.11 23.5591Z" fill="#5C6D08"/>
<path d="M183.015 23.4697L179.156 18.8242L180.21 18.1988L184.516 23.4697H183.015ZM176.136 23.4697V14.0893H177.405V23.4697H176.136ZM177.011 19.2888V18.1988H180.031V19.2888H177.011ZM180.317 18.9135L179.138 18.7349L182.873 14.0893H184.248L180.317 18.9135Z" fill="#5C6D08"/>
<path d="M184.803 23.4519L184.893 22.362C184.976 22.3739 185.054 22.3917 185.125 22.4156C185.208 22.4275 185.28 22.4334 185.339 22.4334C185.721 22.4334 186.024 22.2905 186.251 22.0046C186.489 21.7187 186.668 21.3376 186.787 20.8611C186.906 20.3846 186.989 19.8486 187.037 19.253C187.085 18.6455 187.126 18.038 187.162 17.4305L187.323 14.0893H194.202V23.4697H192.934V14.8219L193.255 15.1971H188.145L188.449 14.804L188.306 17.5199C188.27 18.3299 188.204 19.1041 188.109 19.8427C188.026 20.5812 187.889 21.2304 187.698 21.7902C187.519 22.35 187.269 22.7908 186.948 23.1124C186.626 23.4221 186.215 23.5769 185.715 23.5769C185.572 23.5769 185.423 23.565 185.268 23.5412C185.125 23.5174 184.97 23.4876 184.803 23.4519Z" fill="#5C6D08"/>
<path d="M203.634 23.4697V21.3971L203.581 21.0576V17.5914C203.581 16.7933 203.354 16.1798 202.902 15.751C202.461 15.3222 201.8 15.1078 200.918 15.1078C200.311 15.1078 199.733 15.209 199.185 15.4115C198.637 15.614 198.172 15.882 197.791 16.2156L197.219 15.2686C197.696 14.8636 198.268 14.5539 198.935 14.3395C199.602 14.1132 200.305 14 201.043 14C202.259 14 203.194 14.3037 203.849 14.9112C204.516 15.5068 204.85 16.4181 204.85 17.645V23.4697H203.634ZM200.4 23.5591C199.697 23.5591 199.084 23.4459 198.56 23.2196C198.047 22.9814 197.654 22.6597 197.38 22.2548C197.106 21.8378 196.969 21.3614 196.969 20.8254C196.969 20.337 197.082 19.8963 197.309 19.5032C197.547 19.0982 197.928 18.7766 198.452 18.5383C198.988 18.2882 199.703 18.1631 200.597 18.1631H203.831V19.1101H200.632C199.727 19.1101 199.096 19.2709 198.738 19.5925C198.393 19.9141 198.22 20.3132 198.22 20.7896C198.22 21.3256 198.429 21.7545 198.846 22.0761C199.262 22.3977 199.846 22.5585 200.597 22.5585C201.311 22.5585 201.925 22.3977 202.437 22.0761C202.961 21.7426 203.343 21.2661 203.581 20.6467L203.867 21.5222C203.628 22.1416 203.212 22.6359 202.616 23.0052C202.032 23.3744 201.294 23.5591 200.4 23.5591Z" fill="#5C6D08"/>
<path d="M208.227 23.4697V14.0893H209.513L213.766 21.2899H213.23L217.555 14.0893H218.734V23.4697H217.572V15.5366L217.805 15.6438L213.766 22.3262H213.194L209.12 15.5723L209.388 15.5187V23.4697H208.227Z" fill="#5C6D08"/>
<path d="M222.344 23.4697V14.0893H223.613V18.2346H229.528V14.0893H230.796V23.4697H229.528V19.3245H223.613V23.4697H222.344Z" fill="#5C6D08"/>
<path d="M238.262 23.5591C237.357 23.5591 236.541 23.3566 235.814 22.9516C235.099 22.5347 234.533 21.9689 234.116 21.2542C233.699 20.5276 233.491 19.6997 233.491 18.7706C233.491 17.8296 233.699 17.0017 234.116 16.287C234.533 15.5723 235.099 15.0125 235.814 14.6075C236.529 14.2025 237.345 14 238.262 14C239.191 14 240.013 14.2025 240.728 14.6075C241.455 15.0125 242.02 15.5723 242.425 16.287C242.842 17.0017 243.051 17.8296 243.051 18.7706C243.051 19.6997 242.842 20.5276 242.425 21.2542C242.02 21.9689 241.455 22.5347 240.728 22.9516C240.001 23.3566 239.179 23.5591 238.262 23.5591ZM238.262 22.4334C238.941 22.4334 239.543 22.2845 240.067 21.9867C240.591 21.677 241.002 21.2482 241.3 20.7003C241.609 20.1404 241.764 19.4972 241.764 18.7706C241.764 18.0321 241.609 17.3889 241.3 16.8409C241.002 16.293 240.591 15.8701 240.067 15.5723C239.543 15.2626 238.947 15.1078 238.28 15.1078C237.613 15.1078 237.017 15.2626 236.493 15.5723C235.969 15.8701 235.552 16.293 235.242 16.8409C234.932 17.3889 234.778 18.0321 234.778 18.7706C234.778 19.4972 234.932 20.1404 235.242 20.7003C235.552 21.2482 235.969 21.677 236.493 21.9867C237.017 22.2845 237.607 22.4334 238.262 22.4334Z" fill="#5C6D08"/>
<path d="M249.783 23.5591C248.806 23.5591 247.948 23.3566 247.21 22.9516C246.471 22.5347 245.893 21.9689 245.476 21.2542C245.06 20.5276 244.851 19.6997 244.851 18.7706C244.851 17.8415 245.048 17.0196 245.441 16.3049C245.846 15.5902 246.394 15.0304 247.085 14.6254C247.788 14.2085 248.574 14 249.443 14C250.325 14 251.105 14.2025 251.784 14.6075C252.475 15.0006 253.017 15.5604 253.41 16.287C253.803 17.0017 254 17.8296 254 18.7706C254 18.8302 253.994 18.8957 253.982 18.9671C253.982 19.0267 253.982 19.0922 253.982 19.1637H245.816V18.2167H253.303L252.803 18.5919C252.803 17.913 252.654 17.3114 252.356 16.7873C252.07 16.2513 251.677 15.8344 251.177 15.5366C250.676 15.2388 250.099 15.0899 249.443 15.0899C248.8 15.0899 248.222 15.2388 247.71 15.5366C247.198 15.8344 246.799 16.2513 246.513 16.7873C246.227 17.3233 246.084 17.9368 246.084 18.6277V18.8242C246.084 19.5389 246.239 20.1702 246.549 20.7182C246.87 21.2542 247.311 21.677 247.871 21.9867C248.443 22.2845 249.092 22.4334 249.819 22.4334C250.39 22.4334 250.921 22.3322 251.409 22.1297C251.909 21.9272 252.338 21.6175 252.696 21.2006L253.41 22.0225C252.993 22.5228 252.469 22.9039 251.838 23.166C251.218 23.428 250.533 23.5591 249.783 23.5591Z" fill="#5C6D08"/>
<path d="M158.665 44.9107V42.838L158.612 42.4986V39.0323C158.612 38.2342 158.385 37.6207 157.933 37.1919C157.492 36.7631 156.831 36.5487 155.949 36.5487C155.342 36.5487 154.764 36.6499 154.216 36.8524C153.668 37.0549 153.203 37.323 152.822 37.6565L152.25 36.7095C152.727 36.3045 153.298 35.9948 153.966 35.7804C154.633 35.5541 155.336 35.4409 156.074 35.4409C157.289 35.4409 158.224 35.7447 158.88 36.3522C159.547 36.9477 159.88 37.859 159.88 39.0859V44.9107H158.665ZM155.431 45C154.728 45 154.115 44.8868 153.59 44.6605C153.078 44.4223 152.685 44.1007 152.411 43.6957C152.137 43.2788 152 42.8023 152 42.2663C152 41.7779 152.113 41.3372 152.34 40.9441C152.578 40.5391 152.959 40.2175 153.483 39.9792C154.019 39.7291 154.734 39.604 155.627 39.604H158.862V40.551H155.663C154.758 40.551 154.126 40.7118 153.769 41.0334C153.424 41.355 153.251 41.7541 153.251 42.2305C153.251 42.7666 153.459 43.1954 153.876 43.517C154.293 43.8386 154.877 43.9994 155.627 43.9994C156.342 43.9994 156.956 43.8386 157.468 43.517C157.992 43.1835 158.373 42.707 158.612 42.0876L158.897 42.9631C158.659 43.5825 158.242 44.0768 157.647 44.4461C157.063 44.8154 156.324 45 155.431 45Z" fill="#5C6D08"/>
<path d="M163.258 44.9107V35.5303H169.905V36.638H164.205L164.526 36.3164V44.9107H163.258Z" fill="#5C6D08"/>
<path d="M175.323 45C174.346 45 173.488 44.7975 172.75 44.3925C172.011 43.9756 171.433 43.4098 171.016 42.6951C170.599 41.9685 170.391 41.1406 170.391 40.2115C170.391 39.2824 170.587 38.4605 170.981 37.7458C171.386 37.0311 171.934 36.4713 172.625 36.0663C173.327 35.6494 174.114 35.4409 174.983 35.4409C175.865 35.4409 176.645 35.6434 177.324 36.0484C178.015 36.4415 178.557 37.0013 178.95 37.728C179.343 38.4426 179.54 39.2705 179.54 40.2115C179.54 40.2711 179.534 40.3366 179.522 40.4081C179.522 40.4676 179.522 40.5331 179.522 40.6046H171.356V39.6576H178.843L178.343 40.0329C178.343 39.3539 178.194 38.7524 177.896 38.2282C177.61 37.6922 177.217 37.2753 176.717 36.9775C176.216 36.6797 175.638 36.5308 174.983 36.5308C174.34 36.5308 173.762 36.6797 173.25 36.9775C172.738 37.2753 172.339 37.6922 172.053 38.2282C171.767 38.7643 171.624 39.3777 171.624 40.0686V40.2651C171.624 40.9798 171.779 41.6111 172.088 42.1591C172.41 42.6951 172.851 43.118 173.411 43.4277C173.983 43.7255 174.632 43.8743 175.358 43.8743C175.93 43.8743 176.46 43.7731 176.949 43.5706C177.449 43.3681 177.878 43.0584 178.235 42.6415L178.95 43.4634C178.533 43.9637 178.009 44.3449 177.378 44.6069C176.758 44.869 176.073 45 175.323 45Z" fill="#5C6D08"/>
<path d="M182.348 44.9107V35.5303H183.617V39.6755H189.532V35.5303H190.8V44.9107H189.532V40.7654H183.617V44.9107H182.348Z" fill="#5C6D08"/>
<path d="M196.193 44.9107V36.2986L196.515 36.638H192.637V35.5303H201.018V36.638H197.14L197.462 36.2986V44.9107H196.193Z" fill="#5C6D08"/>
<path d="M206.347 45C205.418 45 204.584 44.7975 203.845 44.3925C203.119 43.9756 202.547 43.4098 202.13 42.6951C201.713 41.9685 201.505 41.1406 201.505 40.2115C201.505 39.2705 201.713 38.4426 202.13 37.728C202.547 37.0133 203.119 36.4534 203.845 36.0484C204.584 35.6434 205.418 35.4409 206.347 35.4409C207.145 35.4409 207.866 35.5958 208.509 35.9055C209.153 36.2152 209.659 36.6797 210.028 37.2991L209.081 37.9424C208.759 37.4659 208.36 37.1145 207.884 36.8882C207.407 36.6619 206.889 36.5487 206.329 36.5487C205.662 36.5487 205.061 36.7036 204.525 37.0133C203.988 37.311 203.566 37.7339 203.256 38.2818C202.946 38.8298 202.791 39.473 202.791 40.2115C202.791 40.95 202.946 41.5933 203.256 42.1412C203.566 42.6891 203.988 43.118 204.525 43.4277C205.061 43.7255 205.662 43.8743 206.329 43.8743C206.889 43.8743 207.407 43.7612 207.884 43.5349C208.36 43.3085 208.759 42.9631 209.081 42.4986L210.028 43.1418C209.659 43.7493 209.153 44.2138 208.509 44.5354C207.866 44.8451 207.145 45 206.347 45Z" fill="#5C6D08"/>
<path d="M214.097 44.9107V36.2986L214.419 36.638H210.541V35.5303H218.922V36.638H215.044L215.366 36.2986V44.9107H214.097Z" fill="#5C6D08"/>
<path d="M220.756 44.9107V35.5303H224.902C225.962 35.5303 226.796 35.7328 227.403 36.1378C228.023 36.5427 228.333 37.1383 228.333 37.9245C228.333 38.6868 228.041 39.2765 227.457 39.6934C226.873 40.0984 226.105 40.3009 225.152 40.3009L225.402 39.9256C226.522 39.9256 227.344 40.1341 227.868 40.551C228.392 40.9679 228.654 41.5695 228.654 42.3556C228.654 43.1656 228.356 43.7969 227.761 44.2496C227.177 44.6903 226.266 44.9107 225.027 44.9107H220.756ZM221.989 43.9101H224.973C225.771 43.9101 226.373 43.785 226.778 43.5349C227.195 43.2728 227.403 42.8559 227.403 42.2841C227.403 41.7124 227.219 41.2955 226.85 41.0334C226.48 40.7714 225.897 40.6403 225.098 40.6403H221.989V43.9101ZM221.989 39.6934H224.812C225.539 39.6934 226.093 39.5564 226.474 39.2824C226.867 39.0085 227.064 38.6094 227.064 38.0853C227.064 37.5612 226.867 37.1681 226.474 36.9061C226.093 36.644 225.539 36.513 224.812 36.513H221.989V39.6934Z" fill="#5C6D08"/>
<path d="M235.487 45C234.582 45 233.766 44.7975 233.039 44.3925C232.325 43.9756 231.759 43.4098 231.342 42.6951C230.925 41.9685 230.716 41.1406 230.716 40.2115C230.716 39.2705 230.925 38.4426 231.342 37.728C231.759 37.0133 232.325 36.4534 233.039 36.0484C233.754 35.6434 234.57 35.4409 235.487 35.4409C236.417 35.4409 237.239 35.6434 237.953 36.0484C238.68 36.4534 239.246 37.0133 239.651 37.728C240.068 38.4426 240.276 39.2705 240.276 40.2115C240.276 41.1406 240.068 41.9685 239.651 42.6951C239.246 43.4098 238.68 43.9756 237.953 44.3925C237.227 44.7975 236.405 45 235.487 45ZM235.487 43.8743C236.166 43.8743 236.768 43.7255 237.292 43.4277C237.816 43.118 238.227 42.6891 238.525 42.1412C238.835 41.5814 238.99 40.9381 238.99 40.2115C238.99 39.473 238.835 38.8298 238.525 38.2818C238.227 37.7339 237.816 37.311 237.292 37.0133C236.768 36.7036 236.172 36.5487 235.505 36.5487C234.838 36.5487 234.243 36.7036 233.718 37.0133C233.194 37.311 232.777 37.7339 232.468 38.2818C232.158 38.8298 232.003 39.473 232.003 40.2115C232.003 40.9381 232.158 41.5814 232.468 42.1412C232.777 42.6891 233.194 43.118 233.718 43.4277C234.243 43.7255 234.832 43.8743 235.487 43.8743Z" fill="#5C6D08"/>
<path d="M157.682 23.5591C156.872 23.5591 156.14 23.3744 155.484 23.0052C154.829 22.624 154.305 22.082 153.912 21.3793C153.531 20.6646 153.34 19.795 153.34 18.7706C153.34 17.7462 153.531 16.8826 153.912 16.1798C154.293 15.4651 154.811 14.9232 155.467 14.5539C156.122 14.1846 156.86 14 157.682 14C158.576 14 159.374 14.2025 160.077 14.6075C160.792 15.0006 161.351 15.5604 161.756 16.287C162.162 17.0017 162.364 17.8296 162.364 18.7706C162.364 19.7235 162.162 20.5573 161.756 21.272C161.351 21.9867 160.792 22.5466 160.077 22.9516C159.374 23.3566 158.576 23.5591 157.682 23.5591ZM152.84 26.936V14.0893H154.055V16.9124L153.93 18.7885L154.109 20.6824V26.936H152.84ZM157.593 22.4334C158.26 22.4334 158.856 22.2845 159.38 21.9867C159.904 21.677 160.321 21.2482 160.631 20.7003C160.94 20.1404 161.095 19.4972 161.095 18.7706C161.095 18.044 160.94 17.4067 160.631 16.8588C160.321 16.3109 159.904 15.882 159.38 15.5723C158.856 15.2626 158.26 15.1078 157.593 15.1078C156.926 15.1078 156.324 15.2626 155.788 15.5723C155.264 15.882 154.847 16.3109 154.537 16.8588C154.24 17.4067 154.091 18.044 154.091 18.7706C154.091 19.4972 154.24 20.1404 154.537 20.7003C154.847 21.2482 155.264 21.677 155.788 21.9867C156.324 22.2845 156.926 22.4334 157.593 22.4334Z" stroke="#5C6D08" stroke-width="0.8" mask="url(#path-5-outside-1_3_262)"/>
<path d="M169.11 23.5591C168.134 23.5591 167.276 23.3566 166.537 22.9516C165.799 22.5347 165.221 21.9689 164.804 21.2542C164.387 20.5276 164.179 19.6997 164.179 18.7706C164.179 17.8415 164.375 17.0196 164.768 16.3049C165.173 15.5902 165.721 15.0304 166.412 14.6254C167.115 14.2085 167.901 14 168.771 14C169.652 14 170.433 14.2025 171.112 14.6075C171.803 15.0006 172.345 15.5604 172.738 16.287C173.131 17.0017 173.328 17.8296 173.328 18.7706C173.328 18.8302 173.322 18.8957 173.31 18.9671C173.31 19.0267 173.31 19.0922 173.31 19.1637H165.144V18.2167H172.631L172.13 18.5919C172.13 17.913 171.981 17.3114 171.684 16.7873C171.398 16.2513 171.005 15.8344 170.504 15.5366C170.004 15.2388 169.426 15.0899 168.771 15.0899C168.128 15.0899 167.55 15.2388 167.038 15.5366C166.525 15.8344 166.126 16.2513 165.84 16.7873C165.555 17.3233 165.412 17.9368 165.412 18.6277V18.8242C165.412 19.5389 165.566 20.1702 165.876 20.7182C166.198 21.2542 166.639 21.677 167.198 21.9867C167.77 22.2845 168.42 22.4334 169.146 22.4334C169.718 22.4334 170.248 22.3322 170.737 22.1297C171.237 21.9272 171.666 21.6175 172.023 21.2006L172.738 22.0225C172.321 22.5228 171.797 22.9039 171.165 23.166C170.546 23.428 169.861 23.5591 169.11 23.5591Z" stroke="#5C6D08" stroke-width="0.8" mask="url(#path-5-outside-1_3_262)"/>
<path d="M183.015 23.4697L179.156 18.8242L180.21 18.1988L184.516 23.4697H183.015ZM176.136 23.4697V14.0893H177.405V23.4697H176.136ZM177.011 19.2888V18.1988H180.031V19.2888H177.011ZM180.317 18.9135L179.138 18.7349L182.873 14.0893H184.248L180.317 18.9135Z" stroke="#5C6D08" stroke-width="0.8" mask="url(#path-5-outside-1_3_262)"/>
<path d="M184.803 23.4519L184.893 22.362C184.976 22.3739 185.054 22.3917 185.125 22.4156C185.208 22.4275 185.28 22.4334 185.339 22.4334C185.721 22.4334 186.024 22.2905 186.251 22.0046C186.489 21.7187 186.668 21.3376 186.787 20.8611C186.906 20.3846 186.989 19.8486 187.037 19.253C187.085 18.6455 187.126 18.038 187.162 17.4305L187.323 14.0893H194.202V23.4697H192.934V14.8219L193.255 15.1971H188.145L188.449 14.804L188.306 17.5199C188.27 18.3299 188.204 19.1041 188.109 19.8427C188.026 20.5812 187.889 21.2304 187.698 21.7902C187.519 22.35 187.269 22.7908 186.948 23.1124C186.626 23.4221 186.215 23.5769 185.715 23.5769C185.572 23.5769 185.423 23.565 185.268 23.5412C185.125 23.5174 184.97 23.4876 184.803 23.4519Z" stroke="#5C6D08" stroke-width="0.8" mask="url(#path-5-outside-1_3_262)"/>
<path d="M203.634 23.4697V21.3971L203.581 21.0576V17.5914C203.581 16.7933 203.354 16.1798 202.902 15.751C202.461 15.3222 201.8 15.1078 200.918 15.1078C200.311 15.1078 199.733 15.209 199.185 15.4115C198.637 15.614 198.172 15.882 197.791 16.2156L197.219 15.2686C197.696 14.8636 198.268 14.5539 198.935 14.3395C199.602 14.1132 200.305 14 201.043 14C202.259 14 203.194 14.3037 203.849 14.9112C204.516 15.5068 204.85 16.4181 204.85 17.645V23.4697H203.634ZM200.4 23.5591C199.697 23.5591 199.084 23.4459 198.56 23.2196C198.047 22.9814 197.654 22.6597 197.38 22.2548C197.106 21.8378 196.969 21.3614 196.969 20.8254C196.969 20.337 197.082 19.8963 197.309 19.5032C197.547 19.0982 197.928 18.7766 198.452 18.5383C198.988 18.2882 199.703 18.1631 200.597 18.1631H203.831V19.1101H200.632C199.727 19.1101 199.096 19.2709 198.738 19.5925C198.393 19.9141 198.22 20.3132 198.22 20.7896C198.22 21.3256 198.429 21.7545 198.846 22.0761C199.262 22.3977 199.846 22.5585 200.597 22.5585C201.311 22.5585 201.925 22.3977 202.437 22.0761C202.961 21.7426 203.343 21.2661 203.581 20.6467L203.867 21.5222C203.628 22.1416 203.212 22.6359 202.616 23.0052C202.032 23.3744 201.294 23.5591 200.4 23.5591Z" stroke="#5C6D08" stroke-width="0.8" mask="url(#path-5-outside-1_3_262)"/>
<path d="M208.227 23.4697V14.0893H209.513L213.766 21.2899H213.23L217.555 14.0893H218.734V23.4697H217.572V15.5366L217.805 15.6438L213.766 22.3262H213.194L209.12 15.5723L209.388 15.5187V23.4697H208.227Z" stroke="#5C6D08" stroke-width="0.8" mask="url(#path-5-outside-1_3_262)"/>
<path d="M222.344 23.4697V14.0893H223.613V18.2346H229.528V14.0893H230.796V23.4697H229.528V19.3245H223.613V23.4697H222.344Z" stroke="#5C6D08" stroke-width="0.8" mask="url(#path-5-outside-1_3_262)"/>
<path d="M238.262 23.5591C237.357 23.5591 236.541 23.3566 235.814 22.9516C235.099 22.5347 234.533 21.9689 234.116 21.2542C233.699 20.5276 233.491 19.6997 233.491 18.7706C233.491 17.8296 233.699 17.0017 234.116 16.287C234.533 15.5723 235.099 15.0125 235.814 14.6075C236.529 14.2025 237.345 14 238.262 14C239.191 14 240.013 14.2025 240.728 14.6075C241.455 15.0125 242.02 15.5723 242.425 16.287C242.842 17.0017 243.051 17.8296 243.051 18.7706C243.051 19.6997 242.842 20.5276 242.425 21.2542C242.02 21.9689 241.455 22.5347 240.728 22.9516C240.001 23.3566 239.179 23.5591 238.262 23.5591ZM238.262 22.4334C238.941 22.4334 239.543 22.2845 240.067 21.9867C240.591 21.677 241.002 21.2482 241.3 20.7003C241.609 20.1404 241.764 19.4972 241.764 18.7706C241.764 18.0321 241.609 17.3889 241.3 16.8409C241.002 16.293 240.591 15.8701 240.067 15.5723C239.543 15.2626 238.947 15.1078 238.28 15.1078C237.613 15.1078 237.017 15.2626 236.493 15.5723C235.969 15.8701 235.552 16.293 235.242 16.8409C234.932 17.3889 234.778 18.0321 234.778 18.7706C234.778 19.4972 234.932 20.1404 235.242 20.7003C235.552 21.2482 235.969 21.677 236.493 21.9867C237.017 22.2845 237.607 22.4334 238.262 22.4334Z" stroke="#5C6D08" stroke-width="0.8" mask="url(#path-5-outside-1_3_262)"/>
<path d="M249.783 23.5591C248.806 23.5591 247.948 23.3566 247.21 22.9516C246.471 22.5347 245.893 21.9689 245.476 21.2542C245.06 20.5276 244.851 19.6997 244.851 18.7706C244.851 17.8415 245.048 17.0196 245.441 16.3049C245.846 15.5902 246.394 15.0304 247.085 14.6254C247.788 14.2085 248.574 14 249.443 14C250.325 14 251.105 14.2025 251.784 14.6075C252.475 15.0006 253.017 15.5604 253.41 16.287C253.803 17.0017 254 17.8296 254 18.7706C254 18.8302 253.994 18.8957 253.982 18.9671C253.982 19.0267 253.982 19.0922 253.982 19.1637H245.816V18.2167H253.303L252.803 18.5919C252.803 17.913 252.654 17.3114 252.356 16.7873C252.07 16.2513 251.677 15.8344 251.177 15.5366C250.676 15.2388 250.099 15.0899 249.443 15.0899C248.8 15.0899 248.222 15.2388 247.71 15.5366C247.198 15.8344 246.799 16.2513 246.513 16.7873C246.227 17.3233 246.084 17.9368 246.084 18.6277V18.8242C246.084 19.5389 246.239 20.1702 246.549 20.7182C246.87 21.2542 247.311 21.677 247.871 21.9867C248.443 22.2845 249.092 22.4334 249.819 22.4334C250.39 22.4334 250.921 22.3322 251.409 22.1297C251.909 21.9272 252.338 21.6175 252.696 21.2006L253.41 22.0225C252.993 22.5228 252.469 22.9039 251.838 23.166C251.218 23.428 250.533 23.5591 249.783 23.5591Z" stroke="#5C6D08" stroke-width="0.8" mask="url(#path-5-outside-1_3_262)"/>
<path d="M158.665 44.9107V42.838L158.612 42.4986V39.0323C158.612 38.2342 158.385 37.6207 157.933 37.1919C157.492 36.7631 156.831 36.5487 155.949 36.5487C155.342 36.5487 154.764 36.6499 154.216 36.8524C153.668 37.0549 153.203 37.323 152.822 37.6565L152.25 36.7095C152.727 36.3045 153.298 35.9948 153.966 35.7804C154.633 35.5541 155.336 35.4409 156.074 35.4409C157.289 35.4409 158.224 35.7447 158.88 36.3522C159.547 36.9477 159.88 37.859 159.88 39.0859V44.9107H158.665ZM155.431 45C154.728 45 154.115 44.8868 153.59 44.6605C153.078 44.4223 152.685 44.1007 152.411 43.6957C152.137 43.2788 152 42.8023 152 42.2663C152 41.7779 152.113 41.3372 152.34 40.9441C152.578 40.5391 152.959 40.2175 153.483 39.9792C154.019 39.7291 154.734 39.604 155.627 39.604H158.862V40.551H155.663C154.758 40.551 154.126 40.7118 153.769 41.0334C153.424 41.355 153.251 41.7541 153.251 42.2305C153.251 42.7666 153.459 43.1954 153.876 43.517C154.293 43.8386 154.877 43.9994 155.627 43.9994C156.342 43.9994 156.956 43.8386 157.468 43.517C157.992 43.1835 158.373 42.707 158.612 42.0876L158.897 42.9631C158.659 43.5825 158.242 44.0768 157.647 44.4461C157.063 44.8154 156.324 45 155.431 45Z" stroke="#5C6D08" stroke-width="0.8" mask="url(#path-5-outside-1_3_262)"/>
<path d="M163.258 44.9107V35.5303H169.905V36.638H164.205L164.526 36.3164V44.9107H163.258Z" stroke="#5C6D08" stroke-width="0.8" mask="url(#path-5-outside-1_3_262)"/>
<path d="M175.323 45C174.346 45 173.488 44.7975 172.75 44.3925C172.011 43.9756 171.433 43.4098 171.016 42.6951C170.599 41.9685 170.391 41.1406 170.391 40.2115C170.391 39.2824 170.587 38.4605 170.981 37.7458C171.386 37.0311 171.934 36.4713 172.625 36.0663C173.327 35.6494 174.114 35.4409 174.983 35.4409C175.865 35.4409 176.645 35.6434 177.324 36.0484C178.015 36.4415 178.557 37.0013 178.95 37.728C179.343 38.4426 179.54 39.2705 179.54 40.2115C179.54 40.2711 179.534 40.3366 179.522 40.4081C179.522 40.4676 179.522 40.5331 179.522 40.6046H171.356V39.6576H178.843L178.343 40.0329C178.343 39.3539 178.194 38.7524 177.896 38.2282C177.61 37.6922 177.217 37.2753 176.717 36.9775C176.216 36.6797 175.638 36.5308 174.983 36.5308C174.34 36.5308 173.762 36.6797 173.25 36.9775C172.738 37.2753 172.339 37.6922 172.053 38.2282C171.767 38.7643 171.624 39.3777 171.624 40.0686V40.2651C171.624 40.9798 171.779 41.6111 172.088 42.1591C172.41 42.6951 172.851 43.118 173.411 43.4277C173.983 43.7255 174.632 43.8743 175.358 43.8743C175.93 43.8743 176.46 43.7731 176.949 43.5706C177.449 43.3681 177.878 43.0584 178.235 42.6415L178.95 43.4634C178.533 43.9637 178.009 44.3449 177.378 44.6069C176.758 44.869 176.073 45 175.323 45Z" stroke="#5C6D08" stroke-width="0.8" mask="url(#path-5-outside-1_3_262)"/>
<path d="M182.348 44.9107V35.5303H183.617V39.6755H189.532V35.5303H190.8V44.9107H189.532V40.7654H183.617V44.9107H182.348Z" stroke="#5C6D08" stroke-width="0.8" mask="url(#path-5-outside-1_3_262)"/>
<path d="M196.193 44.9107V36.2986L196.515 36.638H192.637V35.5303H201.018V36.638H197.14L197.462 36.2986V44.9107H196.193Z" stroke="#5C6D08" stroke-width="0.8" mask="url(#path-5-outside-1_3_262)"/>
<path d="M206.347 45C205.418 45 204.584 44.7975 203.845 44.3925C203.119 43.9756 202.547 43.4098 202.13 42.6951C201.713 41.9685 201.505 41.1406 201.505 40.2115C201.505 39.2705 201.713 38.4426 202.13 37.728C202.547 37.0133 203.119 36.4534 203.845 36.0484C204.584 35.6434 205.418 35.4409 206.347 35.4409C207.145 35.4409 207.866 35.5958 208.509 35.9055C209.153 36.2152 209.659 36.6797 210.028 37.2991L209.081 37.9424C208.759 37.4659 208.36 37.1145 207.884 36.8882C207.407 36.6619 206.889 36.5487 206.329 36.5487C205.662 36.5487 205.061 36.7036 204.525 37.0133C203.988 37.311 203.566 37.7339 203.256 38.2818C202.946 38.8298 202.791 39.473 202.791 40.2115C202.791 40.95 202.946 41.5933 203.256 42.1412C203.566 42.6891 203.988 43.118 204.525 43.4277C205.061 43.7255 205.662 43.8743 206.329 43.8743C206.889 43.8743 207.407 43.7612 207.884 43.5349C208.36 43.3085 208.759 42.9631 209.081 42.4986L210.028 43.1418C209.659 43.7493 209.153 44.2138 208.509 44.5354C207.866 44.8451 207.145 45 206.347 45Z" stroke="#5C6D08" stroke-width="0.8" mask="url(#path-5-outside-1_3_262)"/>
<path d="M214.097 44.9107V36.2986L214.419 36.638H210.541V35.5303H218.922V36.638H215.044L215.366 36.2986V44.9107H214.097Z" stroke="#5C6D08" stroke-width="0.8" mask="url(#path-5-outside-1_3_262)"/>
<path d="M220.756 44.9107V35.5303H224.902C225.962 35.5303 226.796 35.7328 227.403 36.1378C228.023 36.5427 228.333 37.1383 228.333 37.9245C228.333 38.6868 228.041 39.2765 227.457 39.6934C226.873 40.0984 226.105 40.3009 225.152 40.3009L225.402 39.9256C226.522 39.9256 227.344 40.1341 227.868 40.551C228.392 40.9679 228.654 41.5695 228.654 42.3556C228.654 43.1656 228.356 43.7969 227.761 44.2496C227.177 44.6903 226.266 44.9107 225.027 44.9107H220.756ZM221.989 43.9101H224.973C225.771 43.9101 226.373 43.785 226.778 43.5349C227.195 43.2728 227.403 42.8559 227.403 42.2841C227.403 41.7124 227.219 41.2955 226.85 41.0334C226.48 40.7714 225.897 40.6403 225.098 40.6403H221.989V43.9101ZM221.989 39.6934H224.812C225.539 39.6934 226.093 39.5564 226.474 39.2824C226.867 39.0085 227.064 38.6094 227.064 38.0853C227.064 37.5612 226.867 37.1681 226.474 36.9061C226.093 36.644 225.539 36.513 224.812 36.513H221.989V39.6934Z" stroke="#5C6D08" stroke-width="0.8" mask="url(#path-5-outside-1_3_262)"/>
<path d="M235.487 45C234.582 45 233.766 44.7975 233.039 44.3925C232.325 43.9756 231.759 43.4098 231.342 42.6951C230.925 41.9685 230.716 41.1406 230.716 40.2115C230.716 39.2705 230.925 38.4426 231.342 37.728C231.759 37.0133 232.325 36.4534 233.039 36.0484C233.754 35.6434 234.57 35.4409 235.487 35.4409C236.417 35.4409 237.239 35.6434 237.953 36.0484C238.68 36.4534 239.246 37.0133 239.651 37.728C240.068 38.4426 240.276 39.2705 240.276 40.2115C240.276 41.1406 240.068 41.9685 239.651 42.6951C239.246 43.4098 238.68 43.9756 237.953 44.3925C237.227 44.7975 236.405 45 235.487 45ZM235.487 43.8743C236.166 43.8743 236.768 43.7255 237.292 43.4277C237.816 43.118 238.227 42.6891 238.525 42.1412C238.835 41.5814 238.99 40.9381 238.99 40.2115C238.99 39.473 238.835 38.8298 238.525 38.2818C238.227 37.7339 237.816 37.311 237.292 37.0133C236.768 36.7036 236.172 36.5487 235.505 36.5487C234.838 36.5487 234.243 36.7036 233.718 37.0133C233.194 37.311 232.777 37.7339 232.468 38.2818C232.158 38.8298 232.003 39.473 232.003 40.2115C232.003 40.9381 232.158 41.5814 232.468 42.1412C232.777 42.6891 233.194 43.118 233.718 43.4277C234.243 43.7255 234.832 43.8743 235.487 43.8743Z" stroke="#5C6D08" stroke-width="0.8" mask="url(#path-5-outside-1_3_262)"/>
</svg>
