<svg width="97" height="36" viewBox="0 0 97 36" fill="none" xmlns="http://www.w3.org/2000/svg">
<path d="M96.4325 27.8657C95.8987 27.8657 95.098 28.3238 94.8311 28.4154C94.2083 28.507 93.4076 28.2322 92.9628 24.6591C92.6958 22.5518 92.9628 20.353 93.0517 18.1542C93.0517 17.6045 87.5357 18.429 87.5357 20.1698C87.4467 22.8267 87.0908 25.5753 87.7136 28.1406C87.7136 28.2322 87.7136 28.2322 87.8026 28.3238C85.1335 29.0568 82.4645 27.5909 81.4858 24.6591C81.2189 23.8345 81.1299 22.9183 81.1299 22.0021C81.1299 21.7273 81.2189 19.9865 81.3968 19.4368C85.1335 18.7039 88.6923 17.4212 91.9841 15.5888C92.34 15.4056 93.2297 14.9475 93.1407 14.3978C92.162 6.61025 84.5997 8.07614 79.3506 10.5498C78.016 11.1912 77.6602 11.5576 77.7491 12.4738C77.8381 13.2984 78.7278 13.4816 79.4395 13.2984C80.3292 13.0235 80.7741 12.0157 81.8417 11.5576C85.3115 9.90851 86.9129 12.6571 87.5357 15.7721C85.4004 16.6883 79.4395 17.7877 77.3932 18.1542C76.5036 18.3374 76.3256 18.9787 76.1477 19.5284C75.8808 20.8111 75.7028 22.0938 75.7028 23.3764C75.6139 24.9339 75.4359 27.9573 74.1014 28.1406C72.7669 28.4154 73.0338 22.3686 73.0338 21.086C73.1227 18.1542 73.3897 15.4056 72.7669 12.4738C71.7882 7.89291 66.717 8.53424 63.0693 10.1834C61.112 7.89291 57.2863 8.25938 53.8166 9.26718C52.9269 9.54204 50.7027 10.0917 50.5247 11.2828C49.813 18.3374 49.2792 25.9417 50.4358 32.9963C46.1653 31.3472 42.5175 26.6747 41.5389 22.0021C45.2756 21.4524 48.5674 19.9865 48.1226 15.314C47.3218 7.25158 39.0478 6.51863 31.5744 9.90851C30.7737 10.275 30.5068 10.8247 30.2399 12.0157C29.1723 16.0469 28.4605 23.6513 29.5281 29.9729C29.6171 30.431 30.7737 31.0724 32.5531 31.0724C34.3324 31.0724 35.578 30.6143 35.489 29.9729C33.6207 22.4602 34.6883 13.9397 35.667 10.7331C43.4072 10.0001 42.8734 18.3374 42.7844 19.5284C42.6065 20.7195 41.094 20.9027 40.6492 19.6201C40.2044 18.429 35.667 19.3452 35.7559 21.8189C36.0228 30.7059 44.3859 37.1192 52.66 35.8365C53.2827 35.7449 56.8415 34.8287 56.6636 33.7293C54.7062 26.5831 54.8842 18.8871 55.5959 11.5576C61.201 8.99233 58.6209 25.8501 58.5319 30.1562C58.5319 30.431 59.3326 30.8891 61.3789 30.8891C63.2472 30.8891 64.048 30.7059 64.048 29.8813C64.1369 26.2166 64.2259 21.8189 64.2259 17.7877C64.2259 16.5967 64.3149 13.39 63.6031 12.0157C68.0515 9.81689 67.6067 18.3374 67.5177 19.9865C67.5177 22.9183 66.717 27.6825 69.0302 30.0646C70.8096 31.8969 74.9021 30.8891 77.1263 28.7819C77.5712 29.3316 78.194 29.8813 78.9057 30.2478C81.5748 31.8053 85.3115 31.0724 88.5143 29.7897C89.8489 30.8891 92.0731 30.7975 93.8524 30.3394C94.7421 30.1562 96.3436 29.6065 96.8774 28.5987C97.1443 28.2322 96.9663 27.8657 96.4325 27.8657Z" fill="#5C6D08"/>
<path d="M25.9959 26.2696C25.909 25.4633 24.7796 25.4633 24.1715 25.5529C22.9553 25.7321 22.5209 27.1654 20.9572 27.8821C20.0016 28.33 18.7854 28.4196 18.0035 28.1508C15.658 27.3446 15.1367 25.3738 14.7892 23.2238C14.3549 20.0883 14.5286 15.9675 15.5711 12.9217C15.8317 12.1154 11.488 11.0404 10.4456 13.6384C8.62124 18.3863 7.92625 25.9112 12.0093 29.4946C15.3105 32.3612 20.436 30.6592 24.0847 28.33C24.7796 27.8821 26.0827 26.8967 25.9959 26.2696Z" fill="#5C6D08"/>
<path d="M4.85109 8.55443C6.98941 7.90148 7.2567 7.52837 7.2567 6.87542C7.2567 5.28968 7.4349 3.70393 8.23676 2.49131C9.30592 2.39803 10.8206 2.77115 12.0679 3.05098C13.4935 3.33082 14.4735 2.9577 15.3645 2.49131C15.4536 2.49131 17.681 0.998848 16.79 0.81229C10.3751 -1.23984 2 0.345897 2 8.46116C2 9.11411 2.80187 9.20739 4.85109 8.55443Z" fill="#5C6D08"/>
<path d="M7.49264 11.2803C12.5946 10.0884 18.7521 9.26331 20.8632 14.7641C21.303 15.8643 21.479 17.0561 21.479 18.248C21.479 19.2565 21.2151 20.0816 19.7197 19.8065C19.1039 19.7149 17.5206 18.8897 16.6409 19.4398C15.7613 19.9899 15.9372 22.1902 16.8169 22.0985C19.8076 21.9152 26.4929 20.9984 26.9328 16.8728C27.1967 14.214 26.7568 11.8304 24.2938 9.81339C19.8956 6.14618 7.93246 8.80491 0.895315 11.0969C0.103636 11.372 -0.248222 12.2888 0.1916 12.7472C0.719386 13.2056 2.03885 12.6555 1.95089 12.7472C1.33514 17.2395 1.33514 26.7742 1.77496 31.4499C1.77496 31.8166 2.39071 32 4.15 32C5.90928 32 7.22875 31.5416 7.14078 30.8082C6.96485 24.9406 6.43707 17.3312 7.49264 11.2803Z" fill="#5C6D08"/>
</svg>
