<svg width="263" height="183" viewBox="0 0 263 183" fill="none" xmlns="http://www.w3.org/2000/svg">
<circle cx="128.5" cy="106.5" r="76.5" fill="#5C6D08"/>
<path d="M97 103.727L121.183 126.324C121.584 126.698 122.212 126.68 122.59 126.283L160 87" stroke="white" stroke-width="10" stroke-linecap="round"/>
<path d="M224 0L225.473 8.94256C226.79 16.9408 233.059 23.2096 241.057 24.527L250 26L241.057 27.473C233.059 28.7904 226.79 35.0592 225.473 43.0574L224 52L222.527 43.0574C221.21 35.0592 214.941 28.7904 206.943 27.473L198 26L206.943 24.527C214.941 23.2096 221.21 16.9408 222.527 8.94255L224 0Z" fill="#5C6D08"/>
<path d="M13.5 134L14.2648 138.643C14.9489 142.796 18.2038 146.051 22.3567 146.735L27 147.5L22.3567 148.265C18.2038 148.949 14.9489 152.204 14.2648 156.357L13.5 161L12.7352 156.357C12.0511 152.204 8.79618 148.949 4.64325 148.265L0 147.5L4.64325 146.735C8.79618 146.051 12.0511 142.796 12.7352 138.643L13.5 134Z" fill="#5C6D08"/>
<path d="M249.5 48L250.265 52.6433C250.949 56.7962 254.204 60.0511 258.357 60.7352L263 61.5L258.357 62.2648C254.204 62.9489 250.949 66.2038 250.265 70.3567L249.5 75L248.735 70.3567C248.051 66.2038 244.796 62.9489 240.643 62.2648L236 61.5L240.643 60.7352C244.796 60.0511 248.051 56.7962 248.735 52.6432L249.5 48Z" fill="#5C6D08"/>
</svg>
