<svg width="191" height="40" viewBox="0 0 191 40" fill="none" xmlns="http://www.w3.org/2000/svg">
<path d="M106.698 30.9819C106.107 30.9819 105.221 31.4835 104.926 31.5838C104.237 31.6841 103.352 31.3832 102.86 27.4705C102.565 25.1631 102.86 22.7553 102.958 20.3475C102.958 19.7456 96.857 20.6485 96.857 22.5547C96.7586 25.4641 96.365 28.4738 97.0538 31.2829C97.0538 31.3832 97.0538 31.3832 97.1522 31.4835C94.2 32.2861 91.2479 30.6809 90.1654 27.4705C89.8702 26.5676 89.7718 25.5644 89.7718 24.5611C89.7718 24.2602 89.8702 22.354 90.067 21.7521C94.2001 20.9495 98.1363 19.5449 101.777 17.5385C102.171 17.3378 103.155 16.8362 103.057 16.2343C101.974 7.70671 93.6096 9.31189 87.8037 12.0206C86.3276 12.7229 85.934 13.1242 86.0324 14.1274C86.1308 15.0304 87.1148 15.231 87.9021 15.0304C88.8861 14.7294 89.3782 13.6258 90.559 13.1242C94.3969 11.3184 96.1682 14.3281 96.857 17.7391C94.4953 18.7424 87.9021 19.9462 85.6387 20.3475C84.6547 20.5482 84.4579 21.2505 84.2611 21.8524C83.9659 23.2569 83.769 24.6615 83.769 26.066C83.6706 27.7715 83.4738 31.0822 81.9977 31.2829C80.5217 31.5838 80.8169 24.9624 80.8169 23.5579C80.9153 20.3475 81.2105 17.3378 80.5217 14.1274C79.4392 9.11125 73.8301 9.81351 69.7954 11.6193C67.6305 9.11125 63.399 9.51254 59.5612 10.6161C58.5772 10.9171 56.117 11.519 55.9202 12.8232C55.133 20.5482 54.5425 28.8751 55.8218 36.6C51.0983 34.7942 47.0637 29.6777 45.9812 24.5611C50.1143 23.9592 53.7553 22.354 53.2633 17.2375C52.3776 8.40898 43.2259 7.60639 34.9598 11.3184C34.0741 11.7197 33.7789 12.3216 33.4837 13.6258C32.3028 18.0401 31.5156 26.367 32.6964 33.2893C32.7949 33.7909 34.0741 34.4932 36.0422 34.4932C38.0104 34.4932 39.388 33.9916 39.2896 33.2893C37.2231 25.0628 38.404 15.7326 39.4864 12.2213C48.0477 11.4187 47.4573 20.5482 47.3589 21.8524C47.1621 23.1566 45.4892 23.3573 44.9972 21.9527C44.5051 20.6485 39.4864 21.6517 39.5849 24.3605C39.8801 34.0919 49.1302 41.1146 58.2819 39.7101C58.9708 39.6097 62.907 38.6065 62.7102 37.4026C60.5453 29.5773 60.7421 21.1501 61.5293 13.1242C67.7289 10.3151 64.8751 28.7747 64.7767 33.49C64.7767 33.791 65.6624 34.2926 67.9257 34.2926C69.9922 34.2926 70.8779 34.0919 70.8779 33.189C70.9763 29.176 71.0747 24.3605 71.0747 19.9462C71.0747 18.642 71.1731 15.1307 70.3859 13.6258C75.3061 11.2181 74.8141 20.5482 74.7157 22.354C74.7157 25.5644 73.8301 30.7812 76.3886 33.3897C78.3567 35.3961 82.8834 34.2926 85.3435 31.9851C85.8356 32.5871 86.5244 33.189 87.3116 33.5903C90.2638 35.2958 94.3969 34.4932 97.9395 33.0887C99.4156 34.2926 101.876 34.1922 103.844 33.6906C104.828 33.49 106.599 32.888 107.19 31.7845C107.485 31.3832 107.288 30.9819 106.698 30.9819Z" fill="#FDFCF9"/>
<path d="M29.942 29.5781C29.8436 28.6752 28.5644 28.6752 27.8755 28.7755C26.4978 28.9762 26.0058 30.5814 24.2345 31.384C23.152 31.8856 21.7744 31.9859 20.8887 31.6849C18.2318 30.782 17.6413 28.5749 17.2477 26.1671C16.7557 22.6558 16.9525 18.0409 18.1334 14.6299C18.4286 13.7269 13.5083 12.5231 12.3274 15.4325C10.2609 20.7496 9.47365 29.1768 14.0987 33.1898C17.8381 36.4002 23.6441 34.494 27.7771 31.8856C28.5644 31.384 30.0405 30.2804 29.942 29.5781Z" fill="#FDFCF9"/>
<path d="M6.12701 9.30991C8.48875 8.60764 8.78397 8.20634 8.78397 7.50408C8.78397 5.79857 8.98078 4.09306 9.86643 2.78885C11.0473 2.68852 12.7202 3.08982 14.0979 3.39079C15.6724 3.69176 16.7548 3.29047 17.7389 2.78885C17.8373 2.78885 20.2974 1.18366 19.3134 0.983016C12.2282 -1.22411 2.97803 0.481396 2.97803 9.20958C2.97803 9.91185 3.86368 10.0122 6.12701 9.30991Z" fill="#FDFCF9"/>
<path d="M8.88202 12.5212C14.5896 11.217 21.478 10.3141 23.8397 16.3335C24.3317 17.5374 24.5285 18.8416 24.5285 20.1458C24.5285 21.2494 24.2333 22.1523 22.5604 21.8513C21.8716 21.751 20.1003 20.8481 19.1162 21.45C18.1322 22.052 18.329 24.4597 19.313 24.3594C22.6588 24.1588 30.1377 23.1555 30.6297 18.6409C30.9249 15.7316 30.4329 13.1231 27.6775 10.916C22.7572 6.90304 9.37405 9.81244 1.50159 12.3205C0.615937 12.6215 0.222314 13.6247 0.714343 14.1264C1.30478 14.628 2.78086 14.026 2.68246 14.1264C1.99362 19.0422 1.99362 29.4759 2.48565 34.5925C2.48565 34.9938 3.17449 35.1944 5.1426 35.1944C7.11072 35.1944 8.5868 34.6928 8.4884 33.8902C8.29159 27.4695 7.70115 19.1426 8.88202 12.5212Z" fill="#FDFCF9"/>
<mask id="path-5-outside-1_371_182" maskUnits="userSpaceOnUse" x="113.277" y="9.83594" width="78" height="25" fill="black">
<rect fill="white" x="113.277" y="9.83594" width="78" height="25"/>
<path d="M118.524 17.9799C117.918 17.9799 117.371 17.8419 116.881 17.5659C116.392 17.2811 116 16.876 115.706 16.3508C115.421 15.8167 115.279 15.1668 115.279 14.4012C115.279 13.6357 115.421 12.9902 115.706 12.465C115.991 11.9309 116.378 11.5259 116.868 11.2499C117.357 10.9739 117.909 10.8359 118.524 10.8359C119.191 10.8359 119.788 10.9873 120.313 11.2899C120.847 11.5837 121.266 12.0021 121.568 12.5451C121.871 13.0793 122.022 13.698 122.022 14.4012C122.022 15.1134 121.871 15.7366 121.568 16.2707C121.266 16.8048 120.847 17.2232 120.313 17.5259C119.788 17.8285 119.191 17.9799 118.524 17.9799ZM114.905 20.5036V10.9027H115.813V13.0125L115.719 14.4146L115.853 15.83V20.5036H114.905ZM118.457 17.1386C118.955 17.1386 119.401 17.0274 119.792 16.8048C120.184 16.5733 120.495 16.2529 120.727 15.8434C120.958 15.425 121.074 14.9443 121.074 14.4012C121.074 13.8582 120.958 13.3819 120.727 12.9724C120.495 12.5629 120.184 12.2425 119.792 12.011C119.401 11.7796 118.955 11.6638 118.457 11.6638C117.958 11.6638 117.509 11.7796 117.108 12.011C116.717 12.2425 116.405 12.5629 116.173 12.9724C115.951 13.3819 115.84 13.8582 115.84 14.4012C115.84 14.9443 115.951 15.425 116.173 15.8434C116.405 16.2529 116.717 16.5733 117.108 16.8048C117.509 17.0274 117.958 17.1386 118.457 17.1386Z"/>
<path d="M127.064 17.9799C126.334 17.9799 125.693 17.8285 125.141 17.5259C124.589 17.2143 124.157 16.7915 123.846 16.2573C123.534 15.7143 123.378 15.0956 123.378 14.4012C123.378 13.7069 123.525 13.0926 123.819 12.5585C124.121 12.0244 124.531 11.606 125.047 11.3033C125.573 10.9917 126.16 10.8359 126.81 10.8359C127.469 10.8359 128.052 10.9873 128.559 11.2899C129.076 11.5837 129.481 12.0021 129.774 12.5451C130.068 13.0793 130.215 13.698 130.215 14.4012C130.215 14.4457 130.211 14.4947 130.202 14.5481C130.202 14.5926 130.202 14.6416 130.202 14.695H124.099V13.9873H129.694L129.32 14.2677C129.32 13.7603 129.209 13.3107 128.986 12.919C128.773 12.5184 128.479 12.2069 128.105 11.9843C127.731 11.7618 127.3 11.6505 126.81 11.6505C126.329 11.6505 125.897 11.7618 125.515 11.9843C125.132 12.2069 124.834 12.5184 124.62 12.919C124.406 13.3196 124.3 13.7781 124.3 14.2944V14.4413C124.3 14.9754 124.415 15.4472 124.647 15.8567C124.887 16.2573 125.216 16.5733 125.635 16.8048C126.062 17.0274 126.547 17.1386 127.09 17.1386C127.518 17.1386 127.914 17.063 128.279 16.9116C128.653 16.7603 128.973 16.5288 129.24 16.2173L129.774 16.8315C129.463 17.2054 129.071 17.4903 128.599 17.6861C128.136 17.882 127.624 17.9799 127.064 17.9799Z"/>
<path d="M137.455 17.9131L134.57 14.4413L135.358 13.9739L138.576 17.9131H137.455ZM132.314 17.9131V10.9027H133.262V17.9131H132.314ZM132.968 14.7885V13.9739H135.225V14.7885H132.968ZM135.438 14.5081L134.557 14.3745L137.348 10.9027H138.376L135.438 14.5081Z"/>
<path d="M138.791 17.8998L138.857 17.0852C138.92 17.0941 138.978 17.1075 139.031 17.1253C139.093 17.1342 139.147 17.1386 139.191 17.1386C139.476 17.1386 139.703 17.0318 139.872 16.8182C140.05 16.6045 140.184 16.3196 140.273 15.9636C140.362 15.6075 140.424 15.2069 140.46 14.7618C140.495 14.3078 140.527 13.8538 140.553 13.3997L140.673 10.9027H145.814V17.9131H144.866V11.4502L145.107 11.7306H141.288L141.515 11.4368L141.408 13.4665C141.381 14.0719 141.332 14.6505 141.261 15.2024C141.199 15.7544 141.096 16.2395 140.954 16.6579C140.82 17.0763 140.633 17.4057 140.393 17.6461C140.153 17.8775 139.846 17.9932 139.472 17.9932C139.365 17.9932 139.254 17.9843 139.138 17.9665C139.031 17.9487 138.915 17.9265 138.791 17.8998Z"/>
<path d="M152.863 17.9131V16.3641L152.823 16.1104V13.5199C152.823 12.9235 152.653 12.465 152.315 12.1445C151.986 11.8241 151.492 11.6638 150.833 11.6638C150.379 11.6638 149.947 11.7395 149.538 11.8908C149.128 12.0422 148.781 12.2425 148.496 12.4917L148.069 11.784C148.425 11.4813 148.852 11.2499 149.351 11.0896C149.849 10.9205 150.375 10.8359 150.926 10.8359C151.834 10.8359 152.533 11.0629 153.023 11.5169C153.521 11.9621 153.771 12.6431 153.771 13.56V17.9131H152.863ZM150.446 17.9799C149.921 17.9799 149.462 17.8953 149.07 17.7262C148.688 17.5481 148.394 17.3078 148.189 17.0051C147.984 16.6935 147.882 16.3374 147.882 15.9368C147.882 15.5719 147.967 15.2425 148.136 14.9487C148.314 14.646 148.599 14.4057 148.99 14.2276C149.391 14.0407 149.925 13.9472 150.593 13.9472H153.01V14.6549H150.619C149.943 14.6549 149.471 14.7751 149.204 15.0155C148.946 15.2558 148.817 15.5541 148.817 15.9101C148.817 16.3107 148.972 16.6312 149.284 16.8716C149.596 17.1119 150.032 17.2321 150.593 17.2321C151.127 17.2321 151.585 17.1119 151.968 16.8716C152.36 16.6223 152.645 16.2662 152.823 15.8033L153.036 16.4576C152.858 16.9205 152.547 17.29 152.102 17.5659C151.665 17.8419 151.113 17.9799 150.446 17.9799Z"/>
<path d="M156.295 17.9131V10.9027H157.256L160.434 16.284H160.033L163.265 10.9027H164.146V17.9131H163.278V11.9843L163.452 12.0644L160.434 17.0585H160.007L156.962 12.011L157.163 11.971V17.9131H156.295Z"/>
<path d="M166.844 17.9131V10.9027H167.792V14.0006H172.212V10.9027H173.16V17.9131H172.212V14.8152H167.792V17.9131H166.844Z"/>
<path d="M178.739 17.9799C178.063 17.9799 177.453 17.8285 176.91 17.5259C176.376 17.2143 175.953 16.7915 175.641 16.2573C175.33 15.7143 175.174 15.0956 175.174 14.4012C175.174 13.698 175.33 13.0793 175.641 12.5451C175.953 12.011 176.376 11.5926 176.91 11.2899C177.444 10.9873 178.054 10.8359 178.739 10.8359C179.434 10.8359 180.048 10.9873 180.582 11.2899C181.125 11.5926 181.548 12.011 181.85 12.5451C182.162 13.0793 182.318 13.698 182.318 14.4012C182.318 15.0956 182.162 15.7143 181.85 16.2573C181.548 16.7915 181.125 17.2143 180.582 17.5259C180.039 17.8285 179.425 17.9799 178.739 17.9799ZM178.739 17.1386C179.247 17.1386 179.696 17.0274 180.088 16.8048C180.479 16.5733 180.787 16.2529 181.009 15.8434C181.241 15.425 181.356 14.9443 181.356 14.4012C181.356 13.8493 181.241 13.3686 181.009 12.9591C180.787 12.5496 180.479 12.2336 180.088 12.011C179.696 11.7796 179.251 11.6638 178.752 11.6638C178.254 11.6638 177.809 11.7796 177.417 12.011C177.025 12.2336 176.714 12.5496 176.482 12.9591C176.251 13.3686 176.135 13.8493 176.135 14.4012C176.135 14.9443 176.251 15.425 176.482 15.8434C176.714 16.2529 177.025 16.5733 177.417 16.8048C177.809 17.0274 178.25 17.1386 178.739 17.1386Z"/>
<path d="M187.348 17.9799C186.619 17.9799 185.978 17.8285 185.426 17.5259C184.874 17.2143 184.442 16.7915 184.13 16.2573C183.819 15.7143 183.663 15.0956 183.663 14.4012C183.663 13.7069 183.81 13.0926 184.104 12.5585C184.406 12.0244 184.816 11.606 185.332 11.3033C185.857 10.9917 186.445 10.8359 187.095 10.8359C187.754 10.8359 188.337 10.9873 188.844 11.2899C189.36 11.5837 189.765 12.0021 190.059 12.5451C190.353 13.0793 190.5 13.698 190.5 14.4012C190.5 14.4457 190.495 14.4947 190.486 14.5481C190.486 14.5926 190.486 14.6416 190.486 14.695H184.384V13.9873H189.979L189.605 14.2677C189.605 13.7603 189.494 13.3107 189.271 12.919C189.058 12.5184 188.764 12.2069 188.39 11.9843C188.016 11.7618 187.584 11.6505 187.095 11.6505C186.614 11.6505 186.182 11.7618 185.8 11.9843C185.417 12.2069 185.119 12.5184 184.905 12.919C184.691 13.3196 184.584 13.7781 184.584 14.2944V14.4413C184.584 14.9754 184.7 15.4472 184.932 15.8567C185.172 16.2573 185.501 16.5733 185.92 16.8048C186.347 17.0274 186.832 17.1386 187.375 17.1386C187.802 17.1386 188.199 17.063 188.564 16.9116C188.938 16.7603 189.258 16.5288 189.525 16.2173L190.059 16.8315C189.748 17.2054 189.356 17.4903 188.884 17.6861C188.421 17.882 187.909 17.9799 187.348 17.9799Z"/>
<path d="M119.258 33.9369V32.388L119.218 32.1342V29.5437C119.218 28.9473 119.049 28.4888 118.711 28.1684C118.381 27.8479 117.887 27.6876 117.228 27.6876C116.774 27.6876 116.343 27.7633 115.933 27.9146C115.524 28.066 115.176 28.2663 114.892 28.5155L114.464 27.8078C114.82 27.5051 115.248 27.2737 115.746 27.1134C116.245 26.9443 116.77 26.8597 117.322 26.8597C118.23 26.8597 118.929 27.0867 119.418 27.5408C119.917 27.9859 120.166 28.6669 120.166 29.5838V33.9369H119.258ZM116.841 34.0037C116.316 34.0037 115.857 33.9191 115.466 33.75C115.083 33.5719 114.789 33.3316 114.584 33.0289C114.38 32.7173 114.277 32.3612 114.277 31.9607C114.277 31.5957 114.362 31.2663 114.531 30.9725C114.709 30.6698 114.994 30.4295 115.386 30.2514C115.786 30.0645 116.32 29.971 116.988 29.971H119.405V30.6787H117.015C116.338 30.6787 115.866 30.7989 115.599 31.0393C115.341 31.2796 115.212 31.5779 115.212 31.9339C115.212 32.3345 115.368 32.655 115.679 32.8954C115.991 33.1357 116.427 33.2559 116.988 33.2559C117.522 33.2559 117.981 33.1357 118.363 32.8954C118.755 32.6461 119.04 32.29 119.218 31.8271L119.432 32.4814C119.254 32.9443 118.942 33.3138 118.497 33.5897C118.061 33.8657 117.509 34.0037 116.841 34.0037Z"/>
<path d="M122.69 33.9369V26.9265H127.657V27.7544H123.398L123.638 27.514V33.9369H122.69Z"/>
<path d="M131.706 34.0037C130.976 34.0037 130.335 33.8523 129.783 33.5497C129.231 33.2381 128.799 32.8153 128.488 32.2811C128.176 31.7381 128.02 31.1194 128.02 30.425C128.02 29.7307 128.167 29.1164 128.461 28.5823C128.764 28.0482 129.173 27.6298 129.69 27.3271C130.215 27.0155 130.802 26.8597 131.452 26.8597C132.111 26.8597 132.694 27.0111 133.201 27.3137C133.718 27.6075 134.123 28.0259 134.417 28.5689C134.71 29.1031 134.857 29.7218 134.857 30.425C134.857 30.4695 134.853 30.5185 134.844 30.5719C134.844 30.6164 134.844 30.6654 134.844 30.7188H128.742V30.0111H134.337L133.963 30.2915C133.963 29.7841 133.851 29.3345 133.629 28.9428C133.415 28.5422 133.121 28.2307 132.747 28.0081C132.374 27.7856 131.942 27.6743 131.452 27.6743C130.972 27.6743 130.54 27.7856 130.157 28.0081C129.774 28.2307 129.476 28.5422 129.262 28.9428C129.049 29.3434 128.942 29.8019 128.942 30.3182V30.4651C128.942 30.9992 129.058 31.471 129.289 31.8805C129.529 32.2811 129.859 32.5972 130.277 32.8286C130.704 33.0512 131.19 33.1624 131.733 33.1624C132.16 33.1624 132.556 33.0868 132.921 32.9354C133.295 32.7841 133.615 32.5526 133.883 32.2411L134.417 32.8553C134.105 33.2292 133.713 33.5141 133.242 33.7099C132.779 33.9058 132.267 34.0037 131.706 34.0037Z"/>
<path d="M136.956 33.9369V26.9265H137.904V30.0244H142.324V26.9265H143.272V33.9369H142.324V30.839H137.904V33.9369H136.956Z"/>
<path d="M147.302 33.9369V27.5007L147.542 27.7544H144.645V26.9265H150.907V27.7544H148.01L148.25 27.5007V33.9369H147.302Z"/>
<path d="M154.89 34.0037C154.195 34.0037 153.572 33.8523 153.02 33.5497C152.477 33.2381 152.05 32.8153 151.739 32.2811C151.427 31.7381 151.271 31.1194 151.271 30.425C151.271 29.7218 151.427 29.1031 151.739 28.5689C152.05 28.0348 152.477 27.6164 153.02 27.3137C153.572 27.0111 154.195 26.8597 154.89 26.8597C155.486 26.8597 156.025 26.9755 156.506 27.2069C156.986 27.4384 157.365 27.7856 157.641 28.2485L156.933 28.7292C156.693 28.3731 156.394 28.1105 156.038 27.9413C155.682 27.7722 155.295 27.6876 154.877 27.6876C154.378 27.6876 153.928 27.8034 153.528 28.0348C153.127 28.2574 152.811 28.5734 152.58 28.9829C152.348 29.3924 152.233 29.8731 152.233 30.425C152.233 30.977 152.348 31.4577 152.58 31.8672C152.811 32.2767 153.127 32.5972 153.528 32.8286C153.928 33.0512 154.378 33.1624 154.877 33.1624C155.295 33.1624 155.682 33.0779 156.038 32.9087C156.394 32.7396 156.693 32.4814 156.933 32.1342L157.641 32.615C157.365 33.069 156.986 33.4161 156.506 33.6565C156.025 33.888 155.486 34.0037 154.89 34.0037Z"/>
<path d="M160.681 33.9369V27.5007L160.922 27.7544H158.024V26.9265H164.287V27.7544H161.389L161.629 27.5007V33.9369H160.681Z"/>
<path d="M165.657 33.9369V26.9265H168.755C169.548 26.9265 170.171 27.0778 170.625 27.3805C171.088 27.6832 171.319 28.1283 171.319 28.7158C171.319 29.2856 171.101 29.7262 170.665 30.0378C170.229 30.3405 169.654 30.4918 168.942 30.4918L169.129 30.2114C169.966 30.2114 170.58 30.3672 170.972 30.6787C171.364 30.9903 171.56 31.4399 171.56 32.0274C171.56 32.6328 171.337 33.1046 170.892 33.4429C170.456 33.7722 169.775 33.9369 168.849 33.9369H165.657ZM166.579 33.1891H168.809C169.405 33.1891 169.855 33.0957 170.157 32.9087C170.469 32.7129 170.625 32.4013 170.625 31.974C170.625 31.5467 170.487 31.2351 170.211 31.0393C169.935 30.8434 169.499 30.7455 168.902 30.7455H166.579V33.1891ZM166.579 30.0378H168.689C169.232 30.0378 169.646 29.9354 169.93 29.7307C170.224 29.5259 170.371 29.2277 170.371 28.836C170.371 28.4443 170.224 28.1505 169.93 27.9547C169.646 27.7589 169.232 27.6609 168.689 27.6609H166.579V30.0378Z"/>
<path d="M176.666 34.0037C175.989 34.0037 175.379 33.8523 174.836 33.5497C174.302 33.2381 173.879 32.8153 173.568 32.2811C173.256 31.7381 173.1 31.1194 173.1 30.425C173.1 29.7218 173.256 29.1031 173.568 28.5689C173.879 28.0348 174.302 27.6164 174.836 27.3137C175.37 27.0111 175.98 26.8597 176.666 26.8597C177.36 26.8597 177.974 27.0111 178.508 27.3137C179.052 27.6164 179.474 28.0348 179.777 28.5689C180.089 29.1031 180.244 29.7218 180.244 30.425C180.244 31.1194 180.089 31.7381 179.777 32.2811C179.474 32.8153 179.052 33.2381 178.508 33.5497C177.965 33.8523 177.351 34.0037 176.666 34.0037ZM176.666 33.1624C177.173 33.1624 177.623 33.0512 178.014 32.8286C178.406 32.5972 178.713 32.2767 178.936 31.8672C179.167 31.4488 179.283 30.9681 179.283 30.425C179.283 29.8731 179.167 29.3924 178.936 28.9829C178.713 28.5734 178.406 28.2574 178.014 28.0348C177.623 27.8034 177.178 27.6876 176.679 27.6876C176.181 27.6876 175.735 27.8034 175.344 28.0348C174.952 28.2574 174.641 28.5734 174.409 28.9829C174.178 29.3924 174.062 29.8731 174.062 30.425C174.062 30.9681 174.178 31.4488 174.409 31.8672C174.641 32.2767 174.952 32.5972 175.344 32.8286C175.735 33.0512 176.176 33.1624 176.666 33.1624Z"/>
</mask>
<path d="M118.524 17.9799C117.918 17.9799 117.371 17.8419 116.881 17.5659C116.392 17.2811 116 16.876 115.706 16.3508C115.421 15.8167 115.279 15.1668 115.279 14.4012C115.279 13.6357 115.421 12.9902 115.706 12.465C115.991 11.9309 116.378 11.5259 116.868 11.2499C117.357 10.9739 117.909 10.8359 118.524 10.8359C119.191 10.8359 119.788 10.9873 120.313 11.2899C120.847 11.5837 121.266 12.0021 121.568 12.5451C121.871 13.0793 122.022 13.698 122.022 14.4012C122.022 15.1134 121.871 15.7366 121.568 16.2707C121.266 16.8048 120.847 17.2232 120.313 17.5259C119.788 17.8285 119.191 17.9799 118.524 17.9799ZM114.905 20.5036V10.9027H115.813V13.0125L115.719 14.4146L115.853 15.83V20.5036H114.905ZM118.457 17.1386C118.955 17.1386 119.401 17.0274 119.792 16.8048C120.184 16.5733 120.495 16.2529 120.727 15.8434C120.958 15.425 121.074 14.9443 121.074 14.4012C121.074 13.8582 120.958 13.3819 120.727 12.9724C120.495 12.5629 120.184 12.2425 119.792 12.011C119.401 11.7796 118.955 11.6638 118.457 11.6638C117.958 11.6638 117.509 11.7796 117.108 12.011C116.717 12.2425 116.405 12.5629 116.173 12.9724C115.951 13.3819 115.84 13.8582 115.84 14.4012C115.84 14.9443 115.951 15.425 116.173 15.8434C116.405 16.2529 116.717 16.5733 117.108 16.8048C117.509 17.0274 117.958 17.1386 118.457 17.1386Z" fill="#FDFCF9"/>
<path d="M127.064 17.9799C126.334 17.9799 125.693 17.8285 125.141 17.5259C124.589 17.2143 124.157 16.7915 123.846 16.2573C123.534 15.7143 123.378 15.0956 123.378 14.4012C123.378 13.7069 123.525 13.0926 123.819 12.5585C124.121 12.0244 124.531 11.606 125.047 11.3033C125.573 10.9917 126.16 10.8359 126.81 10.8359C127.469 10.8359 128.052 10.9873 128.559 11.2899C129.076 11.5837 129.481 12.0021 129.774 12.5451C130.068 13.0793 130.215 13.698 130.215 14.4012C130.215 14.4457 130.211 14.4947 130.202 14.5481C130.202 14.5926 130.202 14.6416 130.202 14.695H124.099V13.9873H129.694L129.32 14.2677C129.32 13.7603 129.209 13.3107 128.986 12.919C128.773 12.5184 128.479 12.2069 128.105 11.9843C127.731 11.7618 127.3 11.6505 126.81 11.6505C126.329 11.6505 125.897 11.7618 125.515 11.9843C125.132 12.2069 124.834 12.5184 124.62 12.919C124.406 13.3196 124.3 13.7781 124.3 14.2944V14.4413C124.3 14.9754 124.415 15.4472 124.647 15.8567C124.887 16.2573 125.216 16.5733 125.635 16.8048C126.062 17.0274 126.547 17.1386 127.09 17.1386C127.518 17.1386 127.914 17.063 128.279 16.9116C128.653 16.7603 128.973 16.5288 129.24 16.2173L129.774 16.8315C129.463 17.2054 129.071 17.4903 128.599 17.6861C128.136 17.882 127.624 17.9799 127.064 17.9799Z" fill="#FDFCF9"/>
<path d="M137.455 17.9131L134.57 14.4413L135.358 13.9739L138.576 17.9131H137.455ZM132.314 17.9131V10.9027H133.262V17.9131H132.314ZM132.968 14.7885V13.9739H135.225V14.7885H132.968ZM135.438 14.5081L134.557 14.3745L137.348 10.9027H138.376L135.438 14.5081Z" fill="#FDFCF9"/>
<path d="M138.791 17.8998L138.857 17.0852C138.92 17.0941 138.978 17.1075 139.031 17.1253C139.093 17.1342 139.147 17.1386 139.191 17.1386C139.476 17.1386 139.703 17.0318 139.872 16.8182C140.05 16.6045 140.184 16.3196 140.273 15.9636C140.362 15.6075 140.424 15.2069 140.46 14.7618C140.495 14.3078 140.527 13.8538 140.553 13.3997L140.673 10.9027H145.814V17.9131H144.866V11.4502L145.107 11.7306H141.288L141.515 11.4368L141.408 13.4665C141.381 14.0719 141.332 14.6505 141.261 15.2024C141.199 15.7544 141.096 16.2395 140.954 16.6579C140.82 17.0763 140.633 17.4057 140.393 17.6461C140.153 17.8775 139.846 17.9932 139.472 17.9932C139.365 17.9932 139.254 17.9843 139.138 17.9665C139.031 17.9487 138.915 17.9265 138.791 17.8998Z" fill="#FDFCF9"/>
<path d="M152.863 17.9131V16.3641L152.823 16.1104V13.5199C152.823 12.9235 152.653 12.465 152.315 12.1445C151.986 11.8241 151.492 11.6638 150.833 11.6638C150.379 11.6638 149.947 11.7395 149.538 11.8908C149.128 12.0422 148.781 12.2425 148.496 12.4917L148.069 11.784C148.425 11.4813 148.852 11.2499 149.351 11.0896C149.849 10.9205 150.375 10.8359 150.926 10.8359C151.834 10.8359 152.533 11.0629 153.023 11.5169C153.521 11.9621 153.771 12.6431 153.771 13.56V17.9131H152.863ZM150.446 17.9799C149.921 17.9799 149.462 17.8953 149.07 17.7262C148.688 17.5481 148.394 17.3078 148.189 17.0051C147.984 16.6935 147.882 16.3374 147.882 15.9368C147.882 15.5719 147.967 15.2425 148.136 14.9487C148.314 14.646 148.599 14.4057 148.99 14.2276C149.391 14.0407 149.925 13.9472 150.593 13.9472H153.01V14.6549H150.619C149.943 14.6549 149.471 14.7751 149.204 15.0155C148.946 15.2558 148.817 15.5541 148.817 15.9101C148.817 16.3107 148.972 16.6312 149.284 16.8716C149.596 17.1119 150.032 17.2321 150.593 17.2321C151.127 17.2321 151.585 17.1119 151.968 16.8716C152.36 16.6223 152.645 16.2662 152.823 15.8033L153.036 16.4576C152.858 16.9205 152.547 17.29 152.102 17.5659C151.665 17.8419 151.113 17.9799 150.446 17.9799Z" fill="#FDFCF9"/>
<path d="M156.295 17.9131V10.9027H157.256L160.434 16.284H160.033L163.265 10.9027H164.146V17.9131H163.278V11.9843L163.452 12.0644L160.434 17.0585H160.007L156.962 12.011L157.163 11.971V17.9131H156.295Z" fill="#FDFCF9"/>
<path d="M166.844 17.9131V10.9027H167.792V14.0006H172.212V10.9027H173.16V17.9131H172.212V14.8152H167.792V17.9131H166.844Z" fill="#FDFCF9"/>
<path d="M178.739 17.9799C178.063 17.9799 177.453 17.8285 176.91 17.5259C176.376 17.2143 175.953 16.7915 175.641 16.2573C175.33 15.7143 175.174 15.0956 175.174 14.4012C175.174 13.698 175.33 13.0793 175.641 12.5451C175.953 12.011 176.376 11.5926 176.91 11.2899C177.444 10.9873 178.054 10.8359 178.739 10.8359C179.434 10.8359 180.048 10.9873 180.582 11.2899C181.125 11.5926 181.548 12.011 181.85 12.5451C182.162 13.0793 182.318 13.698 182.318 14.4012C182.318 15.0956 182.162 15.7143 181.85 16.2573C181.548 16.7915 181.125 17.2143 180.582 17.5259C180.039 17.8285 179.425 17.9799 178.739 17.9799ZM178.739 17.1386C179.247 17.1386 179.696 17.0274 180.088 16.8048C180.479 16.5733 180.787 16.2529 181.009 15.8434C181.241 15.425 181.356 14.9443 181.356 14.4012C181.356 13.8493 181.241 13.3686 181.009 12.9591C180.787 12.5496 180.479 12.2336 180.088 12.011C179.696 11.7796 179.251 11.6638 178.752 11.6638C178.254 11.6638 177.809 11.7796 177.417 12.011C177.025 12.2336 176.714 12.5496 176.482 12.9591C176.251 13.3686 176.135 13.8493 176.135 14.4012C176.135 14.9443 176.251 15.425 176.482 15.8434C176.714 16.2529 177.025 16.5733 177.417 16.8048C177.809 17.0274 178.25 17.1386 178.739 17.1386Z" fill="#FDFCF9"/>
<path d="M187.348 17.9799C186.619 17.9799 185.978 17.8285 185.426 17.5259C184.874 17.2143 184.442 16.7915 184.13 16.2573C183.819 15.7143 183.663 15.0956 183.663 14.4012C183.663 13.7069 183.81 13.0926 184.104 12.5585C184.406 12.0244 184.816 11.606 185.332 11.3033C185.857 10.9917 186.445 10.8359 187.095 10.8359C187.754 10.8359 188.337 10.9873 188.844 11.2899C189.36 11.5837 189.765 12.0021 190.059 12.5451C190.353 13.0793 190.5 13.698 190.5 14.4012C190.5 14.4457 190.495 14.4947 190.486 14.5481C190.486 14.5926 190.486 14.6416 190.486 14.695H184.384V13.9873H189.979L189.605 14.2677C189.605 13.7603 189.494 13.3107 189.271 12.919C189.058 12.5184 188.764 12.2069 188.39 11.9843C188.016 11.7618 187.584 11.6505 187.095 11.6505C186.614 11.6505 186.182 11.7618 185.8 11.9843C185.417 12.2069 185.119 12.5184 184.905 12.919C184.691 13.3196 184.584 13.7781 184.584 14.2944V14.4413C184.584 14.9754 184.7 15.4472 184.932 15.8567C185.172 16.2573 185.501 16.5733 185.92 16.8048C186.347 17.0274 186.832 17.1386 187.375 17.1386C187.802 17.1386 188.199 17.063 188.564 16.9116C188.938 16.7603 189.258 16.5288 189.525 16.2173L190.059 16.8315C189.748 17.2054 189.356 17.4903 188.884 17.6861C188.421 17.882 187.909 17.9799 187.348 17.9799Z" fill="#FDFCF9"/>
<path d="M119.258 33.9369V32.388L119.218 32.1342V29.5437C119.218 28.9473 119.049 28.4888 118.711 28.1684C118.381 27.8479 117.887 27.6876 117.228 27.6876C116.774 27.6876 116.343 27.7633 115.933 27.9146C115.524 28.066 115.176 28.2663 114.892 28.5155L114.464 27.8078C114.82 27.5051 115.248 27.2737 115.746 27.1134C116.245 26.9443 116.77 26.8597 117.322 26.8597C118.23 26.8597 118.929 27.0867 119.418 27.5408C119.917 27.9859 120.166 28.6669 120.166 29.5838V33.9369H119.258ZM116.841 34.0037C116.316 34.0037 115.857 33.9191 115.466 33.75C115.083 33.5719 114.789 33.3316 114.584 33.0289C114.38 32.7173 114.277 32.3612 114.277 31.9607C114.277 31.5957 114.362 31.2663 114.531 30.9725C114.709 30.6698 114.994 30.4295 115.386 30.2514C115.786 30.0645 116.32 29.971 116.988 29.971H119.405V30.6787H117.015C116.338 30.6787 115.866 30.7989 115.599 31.0393C115.341 31.2796 115.212 31.5779 115.212 31.9339C115.212 32.3345 115.368 32.655 115.679 32.8954C115.991 33.1357 116.427 33.2559 116.988 33.2559C117.522 33.2559 117.981 33.1357 118.363 32.8954C118.755 32.6461 119.04 32.29 119.218 31.8271L119.432 32.4814C119.254 32.9443 118.942 33.3138 118.497 33.5897C118.061 33.8657 117.509 34.0037 116.841 34.0037Z" fill="#FDFCF9"/>
<path d="M122.69 33.9369V26.9265H127.657V27.7544H123.398L123.638 27.514V33.9369H122.69Z" fill="#FDFCF9"/>
<path d="M131.706 34.0037C130.976 34.0037 130.335 33.8523 129.783 33.5497C129.231 33.2381 128.799 32.8153 128.488 32.2811C128.176 31.7381 128.02 31.1194 128.02 30.425C128.02 29.7307 128.167 29.1164 128.461 28.5823C128.764 28.0482 129.173 27.6298 129.69 27.3271C130.215 27.0155 130.802 26.8597 131.452 26.8597C132.111 26.8597 132.694 27.0111 133.201 27.3137C133.718 27.6075 134.123 28.0259 134.417 28.5689C134.71 29.1031 134.857 29.7218 134.857 30.425C134.857 30.4695 134.853 30.5185 134.844 30.5719C134.844 30.6164 134.844 30.6654 134.844 30.7188H128.742V30.0111H134.337L133.963 30.2915C133.963 29.7841 133.851 29.3345 133.629 28.9428C133.415 28.5422 133.121 28.2307 132.747 28.0081C132.374 27.7856 131.942 27.6743 131.452 27.6743C130.972 27.6743 130.54 27.7856 130.157 28.0081C129.774 28.2307 129.476 28.5422 129.262 28.9428C129.049 29.3434 128.942 29.8019 128.942 30.3182V30.4651C128.942 30.9992 129.058 31.471 129.289 31.8805C129.529 32.2811 129.859 32.5972 130.277 32.8286C130.704 33.0512 131.19 33.1624 131.733 33.1624C132.16 33.1624 132.556 33.0868 132.921 32.9354C133.295 32.7841 133.615 32.5526 133.883 32.2411L134.417 32.8553C134.105 33.2292 133.713 33.5141 133.242 33.7099C132.779 33.9058 132.267 34.0037 131.706 34.0037Z" fill="#FDFCF9"/>
<path d="M136.956 33.9369V26.9265H137.904V30.0244H142.324V26.9265H143.272V33.9369H142.324V30.839H137.904V33.9369H136.956Z" fill="#FDFCF9"/>
<path d="M147.302 33.9369V27.5007L147.542 27.7544H144.645V26.9265H150.907V27.7544H148.01L148.25 27.5007V33.9369H147.302Z" fill="#FDFCF9"/>
<path d="M154.89 34.0037C154.195 34.0037 153.572 33.8523 153.02 33.5497C152.477 33.2381 152.05 32.8153 151.739 32.2811C151.427 31.7381 151.271 31.1194 151.271 30.425C151.271 29.7218 151.427 29.1031 151.739 28.5689C152.05 28.0348 152.477 27.6164 153.02 27.3137C153.572 27.0111 154.195 26.8597 154.89 26.8597C155.486 26.8597 156.025 26.9755 156.506 27.2069C156.986 27.4384 157.365 27.7856 157.641 28.2485L156.933 28.7292C156.693 28.3731 156.394 28.1105 156.038 27.9413C155.682 27.7722 155.295 27.6876 154.877 27.6876C154.378 27.6876 153.928 27.8034 153.528 28.0348C153.127 28.2574 152.811 28.5734 152.58 28.9829C152.348 29.3924 152.233 29.8731 152.233 30.425C152.233 30.977 152.348 31.4577 152.58 31.8672C152.811 32.2767 153.127 32.5972 153.528 32.8286C153.928 33.0512 154.378 33.1624 154.877 33.1624C155.295 33.1624 155.682 33.0779 156.038 32.9087C156.394 32.7396 156.693 32.4814 156.933 32.1342L157.641 32.615C157.365 33.069 156.986 33.4161 156.506 33.6565C156.025 33.888 155.486 34.0037 154.89 34.0037Z" fill="#FDFCF9"/>
<path d="M160.681 33.9369V27.5007L160.922 27.7544H158.024V26.9265H164.287V27.7544H161.389L161.629 27.5007V33.9369H160.681Z" fill="#FDFCF9"/>
<path d="M165.657 33.9369V26.9265H168.755C169.548 26.9265 170.171 27.0778 170.625 27.3805C171.088 27.6832 171.319 28.1283 171.319 28.7158C171.319 29.2856 171.101 29.7262 170.665 30.0378C170.229 30.3405 169.654 30.4918 168.942 30.4918L169.129 30.2114C169.966 30.2114 170.58 30.3672 170.972 30.6787C171.364 30.9903 171.56 31.4399 171.56 32.0274C171.56 32.6328 171.337 33.1046 170.892 33.4429C170.456 33.7722 169.775 33.9369 168.849 33.9369H165.657ZM166.579 33.1891H168.809C169.405 33.1891 169.855 33.0957 170.157 32.9087C170.469 32.7129 170.625 32.4013 170.625 31.974C170.625 31.5467 170.487 31.2351 170.211 31.0393C169.935 30.8434 169.499 30.7455 168.902 30.7455H166.579V33.1891ZM166.579 30.0378H168.689C169.232 30.0378 169.646 29.9354 169.93 29.7307C170.224 29.5259 170.371 29.2277 170.371 28.836C170.371 28.4443 170.224 28.1505 169.93 27.9547C169.646 27.7589 169.232 27.6609 168.689 27.6609H166.579V30.0378Z" fill="#FDFCF9"/>
<path d="M176.666 34.0037C175.989 34.0037 175.379 33.8523 174.836 33.5497C174.302 33.2381 173.879 32.8153 173.568 32.2811C173.256 31.7381 173.1 31.1194 173.1 30.425C173.1 29.7218 173.256 29.1031 173.568 28.5689C173.879 28.0348 174.302 27.6164 174.836 27.3137C175.37 27.0111 175.98 26.8597 176.666 26.8597C177.36 26.8597 177.974 27.0111 178.508 27.3137C179.052 27.6164 179.474 28.0348 179.777 28.5689C180.089 29.1031 180.244 29.7218 180.244 30.425C180.244 31.1194 180.089 31.7381 179.777 32.2811C179.474 32.8153 179.052 33.2381 178.508 33.5497C177.965 33.8523 177.351 34.0037 176.666 34.0037ZM176.666 33.1624C177.173 33.1624 177.623 33.0512 178.014 32.8286C178.406 32.5972 178.713 32.2767 178.936 31.8672C179.167 31.4488 179.283 30.9681 179.283 30.425C179.283 29.8731 179.167 29.3924 178.936 28.9829C178.713 28.5734 178.406 28.2574 178.014 28.0348C177.623 27.8034 177.178 27.6876 176.679 27.6876C176.181 27.6876 175.735 27.8034 175.344 28.0348C174.952 28.2574 174.641 28.5734 174.409 28.9829C174.178 29.3924 174.062 29.8731 174.062 30.425C174.062 30.9681 174.178 31.4488 174.409 31.8672C174.641 32.2767 174.952 32.5972 175.344 32.8286C175.735 33.0512 176.176 33.1624 176.666 33.1624Z" fill="#FDFCF9"/>
<path d="M118.524 17.9799C117.918 17.9799 117.371 17.8419 116.881 17.5659C116.392 17.2811 116 16.876 115.706 16.3508C115.421 15.8167 115.279 15.1668 115.279 14.4012C115.279 13.6357 115.421 12.9902 115.706 12.465C115.991 11.9309 116.378 11.5259 116.868 11.2499C117.357 10.9739 117.909 10.8359 118.524 10.8359C119.191 10.8359 119.788 10.9873 120.313 11.2899C120.847 11.5837 121.266 12.0021 121.568 12.5451C121.871 13.0793 122.022 13.698 122.022 14.4012C122.022 15.1134 121.871 15.7366 121.568 16.2707C121.266 16.8048 120.847 17.2232 120.313 17.5259C119.788 17.8285 119.191 17.9799 118.524 17.9799ZM114.905 20.5036V10.9027H115.813V13.0125L115.719 14.4146L115.853 15.83V20.5036H114.905ZM118.457 17.1386C118.955 17.1386 119.401 17.0274 119.792 16.8048C120.184 16.5733 120.495 16.2529 120.727 15.8434C120.958 15.425 121.074 14.9443 121.074 14.4012C121.074 13.8582 120.958 13.3819 120.727 12.9724C120.495 12.5629 120.184 12.2425 119.792 12.011C119.401 11.7796 118.955 11.6638 118.457 11.6638C117.958 11.6638 117.509 11.7796 117.108 12.011C116.717 12.2425 116.405 12.5629 116.173 12.9724C115.951 13.3819 115.84 13.8582 115.84 14.4012C115.84 14.9443 115.951 15.425 116.173 15.8434C116.405 16.2529 116.717 16.5733 117.108 16.8048C117.509 17.0274 117.958 17.1386 118.457 17.1386Z" stroke="#FDFCF9" stroke-width="0.598425" mask="url(#path-5-outside-1_371_182)"/>
<path d="M127.064 17.9799C126.334 17.9799 125.693 17.8285 125.141 17.5259C124.589 17.2143 124.157 16.7915 123.846 16.2573C123.534 15.7143 123.378 15.0956 123.378 14.4012C123.378 13.7069 123.525 13.0926 123.819 12.5585C124.121 12.0244 124.531 11.606 125.047 11.3033C125.573 10.9917 126.16 10.8359 126.81 10.8359C127.469 10.8359 128.052 10.9873 128.559 11.2899C129.076 11.5837 129.481 12.0021 129.774 12.5451C130.068 13.0793 130.215 13.698 130.215 14.4012C130.215 14.4457 130.211 14.4947 130.202 14.5481C130.202 14.5926 130.202 14.6416 130.202 14.695H124.099V13.9873H129.694L129.32 14.2677C129.32 13.7603 129.209 13.3107 128.986 12.919C128.773 12.5184 128.479 12.2069 128.105 11.9843C127.731 11.7618 127.3 11.6505 126.81 11.6505C126.329 11.6505 125.897 11.7618 125.515 11.9843C125.132 12.2069 124.834 12.5184 124.62 12.919C124.406 13.3196 124.3 13.7781 124.3 14.2944V14.4413C124.3 14.9754 124.415 15.4472 124.647 15.8567C124.887 16.2573 125.216 16.5733 125.635 16.8048C126.062 17.0274 126.547 17.1386 127.09 17.1386C127.518 17.1386 127.914 17.063 128.279 16.9116C128.653 16.7603 128.973 16.5288 129.24 16.2173L129.774 16.8315C129.463 17.2054 129.071 17.4903 128.599 17.6861C128.136 17.882 127.624 17.9799 127.064 17.9799Z" stroke="#FDFCF9" stroke-width="0.598425" mask="url(#path-5-outside-1_371_182)"/>
<path d="M137.455 17.9131L134.57 14.4413L135.358 13.9739L138.576 17.9131H137.455ZM132.314 17.9131V10.9027H133.262V17.9131H132.314ZM132.968 14.7885V13.9739H135.225V14.7885H132.968ZM135.438 14.5081L134.557 14.3745L137.348 10.9027H138.376L135.438 14.5081Z" stroke="#FDFCF9" stroke-width="0.598425" mask="url(#path-5-outside-1_371_182)"/>
<path d="M138.791 17.8998L138.857 17.0852C138.92 17.0941 138.978 17.1075 139.031 17.1253C139.093 17.1342 139.147 17.1386 139.191 17.1386C139.476 17.1386 139.703 17.0318 139.872 16.8182C140.05 16.6045 140.184 16.3196 140.273 15.9636C140.362 15.6075 140.424 15.2069 140.46 14.7618C140.495 14.3078 140.527 13.8538 140.553 13.3997L140.673 10.9027H145.814V17.9131H144.866V11.4502L145.107 11.7306H141.288L141.515 11.4368L141.408 13.4665C141.381 14.0719 141.332 14.6505 141.261 15.2024C141.199 15.7544 141.096 16.2395 140.954 16.6579C140.82 17.0763 140.633 17.4057 140.393 17.6461C140.153 17.8775 139.846 17.9932 139.472 17.9932C139.365 17.9932 139.254 17.9843 139.138 17.9665C139.031 17.9487 138.915 17.9265 138.791 17.8998Z" stroke="#FDFCF9" stroke-width="0.598425" mask="url(#path-5-outside-1_371_182)"/>
<path d="M152.863 17.9131V16.3641L152.823 16.1104V13.5199C152.823 12.9235 152.653 12.465 152.315 12.1445C151.986 11.8241 151.492 11.6638 150.833 11.6638C150.379 11.6638 149.947 11.7395 149.538 11.8908C149.128 12.0422 148.781 12.2425 148.496 12.4917L148.069 11.784C148.425 11.4813 148.852 11.2499 149.351 11.0896C149.849 10.9205 150.375 10.8359 150.926 10.8359C151.834 10.8359 152.533 11.0629 153.023 11.5169C153.521 11.9621 153.771 12.6431 153.771 13.56V17.9131H152.863ZM150.446 17.9799C149.921 17.9799 149.462 17.8953 149.07 17.7262C148.688 17.5481 148.394 17.3078 148.189 17.0051C147.984 16.6935 147.882 16.3374 147.882 15.9368C147.882 15.5719 147.967 15.2425 148.136 14.9487C148.314 14.646 148.599 14.4057 148.99 14.2276C149.391 14.0407 149.925 13.9472 150.593 13.9472H153.01V14.6549H150.619C149.943 14.6549 149.471 14.7751 149.204 15.0155C148.946 15.2558 148.817 15.5541 148.817 15.9101C148.817 16.3107 148.972 16.6312 149.284 16.8716C149.596 17.1119 150.032 17.2321 150.593 17.2321C151.127 17.2321 151.585 17.1119 151.968 16.8716C152.36 16.6223 152.645 16.2662 152.823 15.8033L153.036 16.4576C152.858 16.9205 152.547 17.29 152.102 17.5659C151.665 17.8419 151.113 17.9799 150.446 17.9799Z" stroke="#FDFCF9" stroke-width="0.598425" mask="url(#path-5-outside-1_371_182)"/>
<path d="M156.295 17.9131V10.9027H157.256L160.434 16.284H160.033L163.265 10.9027H164.146V17.9131H163.278V11.9843L163.452 12.0644L160.434 17.0585H160.007L156.962 12.011L157.163 11.971V17.9131H156.295Z" stroke="#FDFCF9" stroke-width="0.598425" mask="url(#path-5-outside-1_371_182)"/>
<path d="M166.844 17.9131V10.9027H167.792V14.0006H172.212V10.9027H173.16V17.9131H172.212V14.8152H167.792V17.9131H166.844Z" stroke="#FDFCF9" stroke-width="0.598425" mask="url(#path-5-outside-1_371_182)"/>
<path d="M178.739 17.9799C178.063 17.9799 177.453 17.8285 176.91 17.5259C176.376 17.2143 175.953 16.7915 175.641 16.2573C175.33 15.7143 175.174 15.0956 175.174 14.4012C175.174 13.698 175.33 13.0793 175.641 12.5451C175.953 12.011 176.376 11.5926 176.91 11.2899C177.444 10.9873 178.054 10.8359 178.739 10.8359C179.434 10.8359 180.048 10.9873 180.582 11.2899C181.125 11.5926 181.548 12.011 181.85 12.5451C182.162 13.0793 182.318 13.698 182.318 14.4012C182.318 15.0956 182.162 15.7143 181.85 16.2573C181.548 16.7915 181.125 17.2143 180.582 17.5259C180.039 17.8285 179.425 17.9799 178.739 17.9799ZM178.739 17.1386C179.247 17.1386 179.696 17.0274 180.088 16.8048C180.479 16.5733 180.787 16.2529 181.009 15.8434C181.241 15.425 181.356 14.9443 181.356 14.4012C181.356 13.8493 181.241 13.3686 181.009 12.9591C180.787 12.5496 180.479 12.2336 180.088 12.011C179.696 11.7796 179.251 11.6638 178.752 11.6638C178.254 11.6638 177.809 11.7796 177.417 12.011C177.025 12.2336 176.714 12.5496 176.482 12.9591C176.251 13.3686 176.135 13.8493 176.135 14.4012C176.135 14.9443 176.251 15.425 176.482 15.8434C176.714 16.2529 177.025 16.5733 177.417 16.8048C177.809 17.0274 178.25 17.1386 178.739 17.1386Z" stroke="#FDFCF9" stroke-width="0.598425" mask="url(#path-5-outside-1_371_182)"/>
<path d="M187.348 17.9799C186.619 17.9799 185.978 17.8285 185.426 17.5259C184.874 17.2143 184.442 16.7915 184.13 16.2573C183.819 15.7143 183.663 15.0956 183.663 14.4012C183.663 13.7069 183.81 13.0926 184.104 12.5585C184.406 12.0244 184.816 11.606 185.332 11.3033C185.857 10.9917 186.445 10.8359 187.095 10.8359C187.754 10.8359 188.337 10.9873 188.844 11.2899C189.36 11.5837 189.765 12.0021 190.059 12.5451C190.353 13.0793 190.5 13.698 190.5 14.4012C190.5 14.4457 190.495 14.4947 190.486 14.5481C190.486 14.5926 190.486 14.6416 190.486 14.695H184.384V13.9873H189.979L189.605 14.2677C189.605 13.7603 189.494 13.3107 189.271 12.919C189.058 12.5184 188.764 12.2069 188.39 11.9843C188.016 11.7618 187.584 11.6505 187.095 11.6505C186.614 11.6505 186.182 11.7618 185.8 11.9843C185.417 12.2069 185.119 12.5184 184.905 12.919C184.691 13.3196 184.584 13.7781 184.584 14.2944V14.4413C184.584 14.9754 184.7 15.4472 184.932 15.8567C185.172 16.2573 185.501 16.5733 185.92 16.8048C186.347 17.0274 186.832 17.1386 187.375 17.1386C187.802 17.1386 188.199 17.063 188.564 16.9116C188.938 16.7603 189.258 16.5288 189.525 16.2173L190.059 16.8315C189.748 17.2054 189.356 17.4903 188.884 17.6861C188.421 17.882 187.909 17.9799 187.348 17.9799Z" stroke="#FDFCF9" stroke-width="0.598425" mask="url(#path-5-outside-1_371_182)"/>
<path d="M119.258 33.9369V32.388L119.218 32.1342V29.5437C119.218 28.9473 119.049 28.4888 118.711 28.1684C118.381 27.8479 117.887 27.6876 117.228 27.6876C116.774 27.6876 116.343 27.7633 115.933 27.9146C115.524 28.066 115.176 28.2663 114.892 28.5155L114.464 27.8078C114.82 27.5051 115.248 27.2737 115.746 27.1134C116.245 26.9443 116.77 26.8597 117.322 26.8597C118.23 26.8597 118.929 27.0867 119.418 27.5408C119.917 27.9859 120.166 28.6669 120.166 29.5838V33.9369H119.258ZM116.841 34.0037C116.316 34.0037 115.857 33.9191 115.466 33.75C115.083 33.5719 114.789 33.3316 114.584 33.0289C114.38 32.7173 114.277 32.3612 114.277 31.9607C114.277 31.5957 114.362 31.2663 114.531 30.9725C114.709 30.6698 114.994 30.4295 115.386 30.2514C115.786 30.0645 116.32 29.971 116.988 29.971H119.405V30.6787H117.015C116.338 30.6787 115.866 30.7989 115.599 31.0393C115.341 31.2796 115.212 31.5779 115.212 31.9339C115.212 32.3345 115.368 32.655 115.679 32.8954C115.991 33.1357 116.427 33.2559 116.988 33.2559C117.522 33.2559 117.981 33.1357 118.363 32.8954C118.755 32.6461 119.04 32.29 119.218 31.8271L119.432 32.4814C119.254 32.9443 118.942 33.3138 118.497 33.5897C118.061 33.8657 117.509 34.0037 116.841 34.0037Z" stroke="#FDFCF9" stroke-width="0.598425" mask="url(#path-5-outside-1_371_182)"/>
<path d="M122.69 33.9369V26.9265H127.657V27.7544H123.398L123.638 27.514V33.9369H122.69Z" stroke="#FDFCF9" stroke-width="0.598425" mask="url(#path-5-outside-1_371_182)"/>
<path d="M131.706 34.0037C130.976 34.0037 130.335 33.8523 129.783 33.5497C129.231 33.2381 128.799 32.8153 128.488 32.2811C128.176 31.7381 128.02 31.1194 128.02 30.425C128.02 29.7307 128.167 29.1164 128.461 28.5823C128.764 28.0482 129.173 27.6298 129.69 27.3271C130.215 27.0155 130.802 26.8597 131.452 26.8597C132.111 26.8597 132.694 27.0111 133.201 27.3137C133.718 27.6075 134.123 28.0259 134.417 28.5689C134.71 29.1031 134.857 29.7218 134.857 30.425C134.857 30.4695 134.853 30.5185 134.844 30.5719C134.844 30.6164 134.844 30.6654 134.844 30.7188H128.742V30.0111H134.337L133.963 30.2915C133.963 29.7841 133.851 29.3345 133.629 28.9428C133.415 28.5422 133.121 28.2307 132.747 28.0081C132.374 27.7856 131.942 27.6743 131.452 27.6743C130.972 27.6743 130.54 27.7856 130.157 28.0081C129.774 28.2307 129.476 28.5422 129.262 28.9428C129.049 29.3434 128.942 29.8019 128.942 30.3182V30.4651C128.942 30.9992 129.058 31.471 129.289 31.8805C129.529 32.2811 129.859 32.5972 130.277 32.8286C130.704 33.0512 131.19 33.1624 131.733 33.1624C132.16 33.1624 132.556 33.0868 132.921 32.9354C133.295 32.7841 133.615 32.5526 133.883 32.2411L134.417 32.8553C134.105 33.2292 133.713 33.5141 133.242 33.7099C132.779 33.9058 132.267 34.0037 131.706 34.0037Z" stroke="#FDFCF9" stroke-width="0.598425" mask="url(#path-5-outside-1_371_182)"/>
<path d="M136.956 33.9369V26.9265H137.904V30.0244H142.324V26.9265H143.272V33.9369H142.324V30.839H137.904V33.9369H136.956Z" stroke="#FDFCF9" stroke-width="0.598425" mask="url(#path-5-outside-1_371_182)"/>
<path d="M147.302 33.9369V27.5007L147.542 27.7544H144.645V26.9265H150.907V27.7544H148.01L148.25 27.5007V33.9369H147.302Z" stroke="#FDFCF9" stroke-width="0.598425" mask="url(#path-5-outside-1_371_182)"/>
<path d="M154.89 34.0037C154.195 34.0037 153.572 33.8523 153.02 33.5497C152.477 33.2381 152.05 32.8153 151.739 32.2811C151.427 31.7381 151.271 31.1194 151.271 30.425C151.271 29.7218 151.427 29.1031 151.739 28.5689C152.05 28.0348 152.477 27.6164 153.02 27.3137C153.572 27.0111 154.195 26.8597 154.89 26.8597C155.486 26.8597 156.025 26.9755 156.506 27.2069C156.986 27.4384 157.365 27.7856 157.641 28.2485L156.933 28.7292C156.693 28.3731 156.394 28.1105 156.038 27.9413C155.682 27.7722 155.295 27.6876 154.877 27.6876C154.378 27.6876 153.928 27.8034 153.528 28.0348C153.127 28.2574 152.811 28.5734 152.58 28.9829C152.348 29.3924 152.233 29.8731 152.233 30.425C152.233 30.977 152.348 31.4577 152.58 31.8672C152.811 32.2767 153.127 32.5972 153.528 32.8286C153.928 33.0512 154.378 33.1624 154.877 33.1624C155.295 33.1624 155.682 33.0779 156.038 32.9087C156.394 32.7396 156.693 32.4814 156.933 32.1342L157.641 32.615C157.365 33.069 156.986 33.4161 156.506 33.6565C156.025 33.888 155.486 34.0037 154.89 34.0037Z" stroke="#FDFCF9" stroke-width="0.598425" mask="url(#path-5-outside-1_371_182)"/>
<path d="M160.681 33.9369V27.5007L160.922 27.7544H158.024V26.9265H164.287V27.7544H161.389L161.629 27.5007V33.9369H160.681Z" stroke="#FDFCF9" stroke-width="0.598425" mask="url(#path-5-outside-1_371_182)"/>
<path d="M165.657 33.9369V26.9265H168.755C169.548 26.9265 170.171 27.0778 170.625 27.3805C171.088 27.6832 171.319 28.1283 171.319 28.7158C171.319 29.2856 171.101 29.7262 170.665 30.0378C170.229 30.3405 169.654 30.4918 168.942 30.4918L169.129 30.2114C169.966 30.2114 170.58 30.3672 170.972 30.6787C171.364 30.9903 171.56 31.4399 171.56 32.0274C171.56 32.6328 171.337 33.1046 170.892 33.4429C170.456 33.7722 169.775 33.9369 168.849 33.9369H165.657ZM166.579 33.1891H168.809C169.405 33.1891 169.855 33.0957 170.157 32.9087C170.469 32.7129 170.625 32.4013 170.625 31.974C170.625 31.5467 170.487 31.2351 170.211 31.0393C169.935 30.8434 169.499 30.7455 168.902 30.7455H166.579V33.1891ZM166.579 30.0378H168.689C169.232 30.0378 169.646 29.9354 169.93 29.7307C170.224 29.5259 170.371 29.2277 170.371 28.836C170.371 28.4443 170.224 28.1505 169.93 27.9547C169.646 27.7589 169.232 27.6609 168.689 27.6609H166.579V30.0378Z" stroke="#FDFCF9" stroke-width="0.598425" mask="url(#path-5-outside-1_371_182)"/>
<path d="M176.666 34.0037C175.989 34.0037 175.379 33.8523 174.836 33.5497C174.302 33.2381 173.879 32.8153 173.568 32.2811C173.256 31.7381 173.1 31.1194 173.1 30.425C173.1 29.7218 173.256 29.1031 173.568 28.5689C173.879 28.0348 174.302 27.6164 174.836 27.3137C175.37 27.0111 175.98 26.8597 176.666 26.8597C177.36 26.8597 177.974 27.0111 178.508 27.3137C179.052 27.6164 179.474 28.0348 179.777 28.5689C180.089 29.1031 180.244 29.7218 180.244 30.425C180.244 31.1194 180.089 31.7381 179.777 32.2811C179.474 32.8153 179.052 33.2381 178.508 33.5497C177.965 33.8523 177.351 34.0037 176.666 34.0037ZM176.666 33.1624C177.173 33.1624 177.623 33.0512 178.014 32.8286C178.406 32.5972 178.713 32.2767 178.936 31.8672C179.167 31.4488 179.283 30.9681 179.283 30.425C179.283 29.8731 179.167 29.3924 178.936 28.9829C178.713 28.5734 178.406 28.2574 178.014 28.0348C177.623 27.8034 177.178 27.6876 176.679 27.6876C176.181 27.6876 175.735 27.8034 175.344 28.0348C174.952 28.2574 174.641 28.5734 174.409 28.9829C174.178 29.3924 174.062 29.8731 174.062 30.425C174.062 30.9681 174.178 31.4488 174.409 31.8672C174.641 32.2767 174.952 32.5972 175.344 32.8286C175.735 33.0512 176.176 33.1624 176.666 33.1624Z" stroke="#FDFCF9" stroke-width="0.598425" mask="url(#path-5-outside-1_371_182)"/>
</svg>
